<?xml version="1.0" standalone="no"?>
<!DOCTYPE svg PUBLIC "-//W3C//DTD SVG 1.1//EN" "http://www.w3.org/Graphics/SVG/1.1/DTD/svg11.dtd"><svg class="icon"
  width="200px" height="200.00px" fill="currentColor" viewBox="0 0 1024 1024" version="1.1"
  xmlns="http://www.w3.org/2000/svg">
  <path
    d="M724 839c15.464 0 28 12.536 28 28s-12.536 28-28 28H300c-15.464 0-28-12.536-28-28s12.536-28 28-28h424z m116-709c66.274 0 120 53.726 120 120v402c0 66.274-53.726 120-120 120H184c-66.274 0-120-53.726-120-120V250c0-66.274 53.726-120 120-120h656z m0 56H184c-34.993 0-63.426 28.084-63.991 62.942L120 250v402c0 34.993 28.084 63.426 62.942 63.991L184 716h656c34.993 0 63.426-28.084 63.991-62.942L904 652V250c0-34.993-28.084-63.426-62.942-63.991L840 186z m-67.304 115.396c10.885 10.765 11.09 28.248 0.543 39.265l-0.323 0.332-87.55 88.531a228 228 0 0 1-160.29 67.674l-1.826 0.007h-45.323a172 172 0 0 0-109.19 39.103l-0.929 0.77-78.874 65.736c-11.88 9.9-29.535 8.297-39.436-3.583-9.801-11.76-8.327-29.182 3.23-39.136l0.353-0.3 78.874-65.736a228 228 0 0 1 144.373-52.848l1.6-0.006h45.322a172 172 0 0 0 121.326-50.081l0.973-0.976 87.55-88.531c10.873-10.996 28.601-11.095 39.597-0.221z" />
</svg>