<?xml version="1.0" standalone="no"?>
<!DOCTYPE svg PUBLIC "-//W3C//DTD SVG 1.1//EN" "http://www.w3.org/Graphics/SVG/1.1/DTD/svg11.dtd"><svg class="icon"
  width="200px" height="200.00px" fill="currentColor" viewBox="0 0 1024 1024" version="1.1"
  xmlns="http://www.w3.org/2000/svg">
  <path
    d="M956.8 334.08c-8.96 0-16 7.04-16 16L940.8 723.2c0 17.28-8.96 33.28-24.32 41.6L544 977.92c-14.72 8.32-32.64 8.32-47.36 0L123.52 764.8c-14.72-8.32-24.32-24.32-24.32-41.6l0-424.96c0-17.28 8.96-33.28 24.32-41.6l372.48-213.12c14.72-8.32 32.64-8.32 47.36 0l334.72 191.36c7.68 4.48 17.28 1.92 21.76-5.76 4.48-7.68 1.92-17.28-5.76-21.76l-334.72-191.36c-24.32-14.08-55.04-14.08-79.36 0L107.52 228.48c-24.96 14.08-40.32 40.96-40.32 69.76L67.2 723.2c0 28.8 15.36 55.04 40.32 69.76L480 1005.44c12.16 7.04 26.24 10.24 39.68 10.24 13.44 0 27.52-3.2 39.68-10.24l373.12-213.12c24.96-14.08 40.32-40.96 40.32-69.76l0-372.48C972.8 341.76 965.76 334.08 956.8 334.08zM349.44 406.4 516.48 504.32 679.68 218.88ZM685.44 602.88 516.48 504.32 344.96 804.48Z" />
</svg>