<?xml version="1.0" standalone="no"?>
<!DOCTYPE svg PUBLIC "-//W3C//DTD SVG 1.1//EN" "http://www.w3.org/Graphics/SVG/1.1/DTD/svg11.dtd"><svg class="icon"
  width="200px" height="200.00px" fill="currentColor" viewBox="0 0 1024 1024" version="1.1"
  xmlns="http://www.w3.org/2000/svg">
  <path
    d="M512 542.208c-4.096 0-8.192-1.024-11.776-3.072L174.592 367.104c-8.704-4.096-13.824-12.8-13.824-22.528s5.12-18.432 13.824-22.528l325.632-172.032a25.088 25.088 0 0 1 24.064 0l325.632 172.032c8.192 4.608 13.824 13.312 13.824 22.528s-5.12 18.432-13.824 22.528l-325.632 172.032c-4.096 2.048-8.192 3.072-12.288 3.072zM241.152 344.576L512 487.424l270.848-142.848L512 201.728 241.152 344.576zM512 707.072c-4.096 0-8.192-1.024-11.776-3.072l-325.632-172.544c-12.8-6.656-17.408-22.016-10.752-34.304s22.016-17.408 34.304-10.752L512 652.288l313.856-166.4c12.288-6.656 28.16-2.048 34.816 10.752 6.656 12.288 2.048 28.16-10.752 34.816l-325.632 172.544c-4.096 2.048-8.192 3.072-12.288 3.072zM512 890.368c-4.096 0-8.192-1.024-11.776-3.072l-325.632-172.032a25.9584 25.9584 0 0 1-10.752-34.816c6.656-12.288 22.016-17.408 34.816-10.752L512 835.584l313.856-165.888c12.288-6.656 28.16-2.048 34.816 10.752 6.656 12.288 2.048 28.16-10.752 34.816l-325.632 172.032c-4.096 2.048-8.192 3.072-12.288 3.072z" />
</svg>