<?xml version="1.0" standalone="no"?>
<!DOCTYPE svg PUBLIC "-//W3C//DTD SVG 1.1//EN" "http://www.w3.org/Graphics/SVG/1.1/DTD/svg11.dtd"><svg class="icon"
  width="200px" height="200.00px" fill="currentColor" viewBox="0 0 1024 1024" version="1.1"
  xmlns="http://www.w3.org/2000/svg">
  <path
    d="M724.589714 596.114286h-203.885714v-168.228572a84.553143 84.553143 0 0 0-168.704 0v185.6l-5.924571-6.875428a85.028571 85.028571 0 0 0-59.428572-24.210286 85.028571 85.028571 0 0 0-60.818286 143.067429l133.485715 143.104a36.571429 36.571429 0 0 0 9.618285 6.875428c3.474286 1.389714 7.204571 2.194286 10.971429 2.267429h344.685714a81.371429 81.371429 0 0 0 77.238857-84.589715v-112.457142a81.371429 81.371429 0 0 0-77.275428-84.553143z m29.257143 197.010285c0 15.104-17.846857 35.693714-29.257143 35.693715H396.8l-132.571429-137.142857a41.142857 41.142857 0 0 1 0-48.932572 32.438857 32.438857 0 0 1 42.057143 4.571429l51.2 47.542857a26.514286 26.514286 0 0 0 19.638857 8.228571 40.228571 40.228571 0 0 0 22.893715-8.228571v-266.971429c0-15.067429 20.992-31.085714 36.096-31.085714a37.924571 37.924571 0 0 1 35.181714 31.085714v191.085715c0 15.542857 5.961143 27.867429 21.504 27.867428h232.667429a40.667429 40.667429 0 0 1 29.257142 34.742857l-0.877714 111.542857z" />
  <path
    d="M793.161143 146.285714H230.875429A84.553143 84.553143 0 0 0 146.285714 230.875429v224.914285a84.114286 84.114286 0 0 0 84.589715 84.114286H259.657143A27.867429 27.867429 0 0 0 287.561143 512c0-15.542857-12.361143-23.771429-27.904-23.771429h-28.781714a36.096 36.096 0 0 1-32.475429-32.438857v-224.914285a35.181714 35.181714 0 0 1 32.475429-31.561143h562.285714a34.742857 34.742857 0 0 1 32 31.524571v224.914286a35.657143 35.657143 0 0 1-32 32.475428H603.428571c-15.542857 0-28.342857 8.228571-28.342857 23.771429a28.342857 28.342857 0 0 0 17.444572 25.856 27.428571 27.428571 0 0 0 10.898285 2.011429h187.867429a84.114286 84.114286 0 0 0 86.418286-84.114286v-224.914286A84.553143 84.553143 0 0 0 793.124571 146.285714z" />
</svg>