<?xml version="1.0" standalone="no"?><!DOCTYPE svg PUBLIC "-//W3C//DTD SVG 1.1//EN" "http://www.w3.org/Graphics/SVG/1.1/DTD/svg11.dtd"><svg class="icon" width="200px" height="200.00px" viewBox="0 0 1024 1024" version="1.1" xmlns="http://www.w3.org/2000/svg"><path fill="#1b9aff" d="M619.062008 348.440178l-112.117406 111.925535-111.925535-111.925535-56.506406 56.506406 98.430513 98.430513h-74.670321v79.94681h107.256641v46.113321h-107.192683v79.94681h107.192683v134.950216h79.946811v-134.950216h107.192683v-79.94681h-107.192683v-46.113321h107.192683v-79.94681H577.329773l98.430513-98.430513z"  /><path fill="#1b9aff" d="M955.062463 419.464925a39.877469 39.877469 0 0 0-30.699575 44.290533 417.194435 417.194435 0 0 1 3.99734 58.585022 421.127818 421.127818 0 1 1-477.122564-417.514222A39.973405 39.973405 0 0 0 440.396877 25.582979 501.394416 501.394416 0 1 0 1008.402975 522.212565a504.56031 504.56031 0 0 0-4.796809-69.521746 39.973405 39.973405 0 0 0-48.543703-33.225894z"  /><path fill="#1b9aff" d="M968.653421 140.706386h-239.840431l56.858171-56.858171A49.087342 49.087342 0 0 0 716.245351 14.422405l-140.546493 140.706386a49.055363 49.055363 0 0 0 0 69.42581l140.706387 140.706386a49.087342 49.087342 0 1 0 69.42581-69.42581l-56.858172-56.858171h239.840432a49.087342 49.087342 0 1 0 0-98.174684z"  /></svg>