<?xml version="1.0" standalone="no"?><!DOCTYPE svg PUBLIC "-//W3C//DTD SVG 1.1//EN" "http://www.w3.org/Graphics/SVG/1.1/DTD/svg11.dtd"><svg class="icon" width="200px" height="200.00px" viewBox="0 0 1024 1024" version="1.1" xmlns="http://www.w3.org/2000/svg"><path fill="#1b9aff" d="M525.736475 423.570384V2.22097h-102.737022v148.777247l-69.554879-69.77822-72.809281 72.681657 142.459877 142.683219v126.985511l-110.23491-63.811815-52.102347-194.626035-99.386902 26.609527 25.524726 95.143416L58.059683 212.79996 6.62736 302.136501l128.836054 74.404576-95.271039 25.524726 26.545715 99.386902 194.817471-52.038535 109.979663 63.492755-109.596792 63.301321-194.626036-52.134253-26.641433 99.386902 95.11151 25.524726L7.105949 723.294479l51.432322 89.1132 128.836055-74.404576-25.524726 95.207228 99.354996 26.705244 52.325688-194.626035 109.341545-63.141791v124.433039l-142.396065 142.140818 72.681657 72.809281 69.714408-69.586785v151.553061h102.864646V423.570384z"  /><path fill="#1b9aff" d="M941.470449 642.157757V148.062873a145.873809 145.873809 0 1 0-291.715712 0v494.094884a218.778808 218.778808 0 1 0 291.715712 0z m-145.841903 308.115348a145.459032 145.459032 0 0 1-72.936904-271.551178v-129.537985h36.468452V512.71549h-36.468452v-72.936905h72.936904v-36.468452h-72.936904v-72.904998h36.468452V293.936682h-36.468452V220.999778h72.936904V184.531326h-72.936904V148.062873a72.936905 72.936905 0 1 1 145.841903 0V678.626209a145.459032 145.459032 0 0 1-72.936905 271.551178z"  /></svg>