<?xml version="1.0" standalone="no"?><!DOCTYPE svg PUBLIC "-//W3C//DTD SVG 1.1//EN" "http://www.w3.org/Graphics/SVG/1.1/DTD/svg11.dtd"><svg t="1675749208713" class="icon" viewBox="0 0 1210 1024" version="1.1" xmlns="http://www.w3.org/2000/svg" p-id="2729" xmlns:xlink="http://www.w3.org/1999/xlink" width="37.8125" height="32"><path d="M958.382212 764.803668v-89.159886a207.585192 207.585192 0 1 0-146.708539-387.580699c-50.514155-117.693983-177.01043-183.680367-302.659484-157.875347s-215.774258 136.275255-215.637455 264.321834a273.604585 273.604585 0 0 0 1.559106 28.944871 176.956516 176.956516 0 0 0-53.334923-8.299828c-86.101089 0-155.897032 60.416734-155.897032 134.946476s69.794842 134.946476 155.897032 134.946475a179.944527 179.944527 0 0 0 31.064756-2.692034v85.360229H209.932103v-0.476791c-117.259003-5.468424-209.070579-102.733754-207.576756-219.892263s95.761605-212.050155 213.120366-214.536436c25.196562-140.70941 132.941387-252.343748 272.871061-282.730361 139.930774-30.380745 284.398395 26.487198 365.885616 144.027507 103.995415-23.019461 212.285616 12.567473 282.245501 92.757456a289.836011 289.836011 0 0 1 53.253868 291.795989c-37.13467 99.660287-125.894785 171.076218-231.349914 186.142808z m-554.617765 43.84275l133.020974-68.027048-131.157822-70.00023a38.299507 38.299507 0 0 1-15.825788-54.500859 45.175564 45.175564 0 0 1 58.960688-14.600802l131.165157 70.000229v-128.319083c0-24.000917 19.504413-43.450315 43.545674-43.450316a43.485891 43.485891 0 0 1 43.531002 43.450316v130.802063l132.632207-67.84a46.565593 46.565593 0 0 1 59.466819 14.278051 36.309456 36.309456 0 0 1-15.935816 52.685387l-133.006304 68.027049 131.165157 69.992894a38.261364 38.261364 0 0 1 15.796447 54.486189 45.125685 45.125685 0 0 1-58.95702 14.622808l-131.16149-69.978224v128.275072a43.538338 43.538338 0 0 1-87.076676 0v-130.758052l-132.617536 67.836333a46.574762 46.574762 0 0 1-59.466819-14.091003 36.236103 36.236103 0 0 1 15.921146-52.890774z" fill="#0D0408" p-id="2730"></path></svg>