<?xml version="1.0" standalone="no"?><!DOCTYPE svg PUBLIC "-//W3C//DTD SVG 1.1//EN" "http://www.w3.org/Graphics/SVG/1.1/DTD/svg11.dtd"><svg t="1675749288164" class="icon" viewBox="0 0 1210 1024" version="1.1" xmlns="http://www.w3.org/2000/svg" p-id="4889" xmlns:xlink="http://www.w3.org/1999/xlink" width="37.8125" height="32"><path d="M1189.732126 604.023931c-37.13467 99.660287-125.894785 171.079885-231.349914 186.142808v-89.159885a207.584092 207.584092 0 1 0-146.708539-387.578132c-50.514155-117.693983-177.01043-183.680367-302.659484-157.875347S293.239931 291.82863 293.376734 419.876309a273.658132 273.658132 0 0 0 1.559106 28.944872 176.841719 176.841719 0 0 0-53.334923-8.299829c-86.101456 0-155.896298 60.416734-155.896298 134.946476s69.794842 134.942808 155.897031 134.942808a179.578499 179.578499 0 0 0 31.064757-2.688367v85.36023H209.932103v-0.480459c-117.259003-5.468424-209.070579-102.730086-207.576756-219.892263s95.761605-212.047587 213.120366-214.533869c25.196562-140.70941 132.941387-252.343748 272.871061-282.730361 139.930774-30.380745 284.398395 26.487198 365.885616 144.027507 103.995415-23.019461 212.285616 12.567473 282.245501 92.757456a289.83161 289.83161 0 0 1 53.254235 291.793421z m-847.158647 261.296046l69.30008-35.832665-68.329261-36.874269a20.128642 20.128642 0 0 1-10.416046-12.50659 20.381708 20.381708 0 0 1 2.171599-16.199886 23.381822 23.381822 0 0 1 30.715232-7.691003l68.329994 36.87427v-67.59427c0-12.642292 10.16298-22.88596 22.687909-22.885959s22.676905 10.243668 22.676905 22.885959v68.899943l69.097994-35.733639a24.092241 24.092241 0 0 1 30.976734 7.518625 19.303427 19.303427 0 0 1 2.149226 15.792779 19.098774 19.098774 0 0 1-10.449054 11.960115l-69.292378 35.832665 68.331461 36.870601a20.264344 20.264344 0 0 1 8.230143 28.699141 23.352848 23.352848 0 0 1-30.716332 7.702005l-68.327794-36.859598v67.568596a22.928138 22.928138 0 0 1-11.336619 19.830831 22.529834 22.529834 0 0 1-22.687908 0 22.931438 22.931438 0 0 1-11.340287-19.830831v-68.877937l-69.085524 35.733639a24.096275 24.096275 0 0 1-30.978934-7.423267 19.258682 19.258682 0 0 1-2.229914-15.862464 19.034957 19.034957 0 0 1 10.522774-11.996791z m307.724836 0l69.299714-35.832665-68.327794-36.874269a20.126074 20.126074 0 0 1-10.416046-12.50659 20.380241 20.380241 0 0 1 2.171232-16.199886 23.382556 23.382556 0 0 1 30.716333-7.691003l68.331461 36.87427v-67.59427c0-12.642292 10.159312-22.88596 22.684241-22.885959s22.676905 10.243668 22.676905 22.885959v68.899943l69.097994-35.733639a24.09114 24.09114 0 0 1 30.976734 7.518625 19.303427 19.303427 0 0 1 2.149226 15.792779 19.098774 19.098774 0 0 1-10.449054 11.960115l-69.292378 35.832665 68.331461 36.870601a20.121307 20.121307 0 0 1 10.412378 12.510258 20.32816 20.32816 0 0 1-2.182235 16.188883 23.352848 23.352848 0 0 1-30.716332 7.702005l-68.327794-36.859598v67.568596a22.928138 22.928138 0 0 1-11.336619 19.830831 22.529834 22.529834 0 0 1-22.687908 0 22.928138 22.928138 0 0 1-11.336619-19.830831v-68.877937l-69.086992 35.733639a24.096275 24.096275 0 0 1-30.980401-7.423267 19.248046 19.248046 0 0 1-2.229914-15.862464 19.042659 19.042659 0 0 1 10.522407-11.996791z" fill="#0D0408" p-id="4890"></path></svg>