<?xml version="1.0" standalone="no"?><!DOCTYPE svg PUBLIC "-//W3C//DTD SVG 1.1//EN" "http://www.w3.org/Graphics/SVG/1.1/DTD/svg11.dtd"><svg t="1675749202759" class="icon" viewBox="0 0 1210 1024" version="1.1" xmlns="http://www.w3.org/2000/svg" p-id="2585" xmlns:xlink="http://www.w3.org/1999/xlink" width="37.8125" height="32"><path d="M1189.732126 556.285066c-37.13467 99.660287-125.894785 171.076218-231.349914 186.142808v-89.159885a207.584825 207.584825 0 1 0-146.708539-387.579599c-50.514155-117.693983-177.01043-183.680367-302.659484-157.875347S293.239931 244.088298 293.376734 372.133777a273.604585 273.604585 0 0 0 1.559106 28.944871 176.956516 176.956516 0 0 0-53.334923-8.299829c-86.101089 0-155.897032 60.420401-155.897032 134.946476s69.795576 134.946476 155.897032 134.946476a179.94086 179.94086 0 0 0 31.064756-2.688367v85.360229H209.932103v-0.480458c-117.259003-5.468424-209.070579-102.730086-207.576756-219.892264s95.761605-212.049054 213.120366-214.535335c25.196562-140.70941 132.941387-252.343748 272.871061-282.730361 139.930774-30.380745 284.398395 26.487198 365.885616 144.027507 103.995415-23.019461 212.285616 12.567473 282.245501 92.757456a289.833444 289.833444 0 0 1 53.254235 291.794888z m-713.902579 101.662808a41.572493 41.572493 0 0 1-83.144985 0c0-22.918968 41.57616-62.246877 41.57616-62.246877s41.568825 39.327908 41.568825 62.246877z m0 152.470372a41.572493 41.572493 0 0 1-83.144985 0c0-22.918968 41.57616-62.246877 41.57616-62.246876s41.568825 39.327908 41.568825 62.246876z m0 152.470373a41.572493 41.572493 0 0 1-83.144985 0c0-22.918968 41.57616-62.246877 41.57616-62.246877s41.568825 39.327908 41.568825 62.246877z m173.104413-53.892034h-88.939828v-203.296276h88.939828v203.296276z m180.274613-251.048711c0 22.911633-18.616848 41.491805-41.57616 41.491805s-41.572493-18.580172-41.572493-41.491805c0-22.918968 41.572493-62.246877 41.572493-62.246877s41.57616 39.327908 41.57616 62.246877z m0 152.470372c0 22.911633-18.616848 41.491805-41.57616 41.491806s-41.572493-18.580172-41.572493-41.491806c0-22.918968 41.572493-62.246877 41.572493-62.246876s41.57616 39.327908 41.57616 62.246876z m0 152.470373c0 22.911633-18.616848 41.495473-41.57616 41.495473a41.540218 41.540218 0 0 1-41.572493-41.495473c0-22.918968 41.572493-62.246877 41.572493-62.246877s41.57616 39.327908 41.57616 62.246877z" fill="#0D0408" p-id="2586"></path></svg>