<?xml version="1.0" standalone="no"?><!DOCTYPE svg PUBLIC "-//W3C//DTD SVG 1.1//EN" "http://www.w3.org/Graphics/SVG/1.1/DTD/svg11.dtd"><svg t="1675749229237" class="icon" viewBox="0 0 1215 1024" version="1.1" xmlns="http://www.w3.org/2000/svg" p-id="3305" xmlns:xlink="http://www.w3.org/1999/xlink" width="37.96875" height="32"><path d="M1185.062008 691.764814H546.947165v0.509799a47.657444 47.657444 0 0 0-5.064986-0.509799 45.575702 45.575702 0 1 0 0 91.151404 24.939828 24.939828 0 0 1 6.341319 0.641834 35.232642 35.232642 0 0 1 17.553237 8.772951l1.430373 0.718854-0.132035 0.403438a35.319198 35.319198 0 0 1-19.944527 59.837249h-0.183381a35.018453 35.018453 0 0 1-5.064986 0.517135c-0.572149 0-1.114957-0.143037-1.690773-0.172378-1.12596 0.047679-2.229914 0.183381-3.370545 0.183381-61.535358 0-111.415014-49.879656-111.415014-111.407679s49.879656-111.407679 111.415014-111.407679h648.241147a30.380745 30.380745 0 1 1 0 60.76149z m-81.028768-172.169169H536.820861c-61.535358 0-111.415014-49.883324-111.415014-111.407679s49.879656-111.409513 111.415014-111.409513c1.136963 0 2.244585 0.130201 3.370545 0.16871 0.568481 0 1.118625-0.168711 1.690773-0.16871a35.539255 35.539255 0 0 1 5.064986 0.513467h0.161376a35.319198 35.319198 0 0 1 19.948194 59.838349l0.150373 0.417009-1.430373 0.716286a35.146453 35.146453 0 0 1-17.553237 8.769284 24.4491 24.4491 0 0 1-6.341319 0.638166 45.575702 45.575702 0 1 0 0 91.151404 44.932768 44.932768 0 0 0 5.064986-0.498796v0.498796h557.086075a30.386246 30.386246 0 1 1 0 60.772493z m-658.371118 40.51255a30.384779 30.384779 0 0 1-30.389914 30.382579H303.857194c-61.53059 0-111.417215-49.883324-111.417215-111.411347s49.884791-111.407679 111.417215-111.407679c1.134762 0 2.250086 0.132034 3.376779 0.176046 0.567381 0 1.114957-0.176046 1.68894-0.176046a35.539255 35.539255 0 0 1 5.066086 0.517135h0.163576a35.31443 35.31443 0 0 1 19.938292 59.837249l0.156974 0.414441-1.427438 0.718854a35.172493 35.172493 0 0 1-17.552871 8.769284 24.472573 24.472573 0 0 1-6.344986 0.638166 45.575702 45.575702 0 1 0 0 91.151404 45.084607 45.084607 0 0 0 5.066086-0.502464v0.502464h101.285043a30.391014 30.391014 0 0 1 30.389914 30.389914zM136.736139 261.329788a45.570201 45.570201 0 1 1 32.228126-13.345742 45.57937 45.57937 0 0 1-32.228126 13.345742zM45.577767 466.418797a45.575702 45.575702 0 1 1 45.574968-45.573869 45.576069 45.576069 0 0 1-45.574968 45.573869z m45.574968 296.248481a45.575702 45.575702 0 1 1-45.574968 45.573868 45.575702 45.575702 0 0 1 45.574968-45.573868z m-22.787667-136.732608a45.580837 45.580837 0 1 1 13.346842 32.227393 45.573868 45.573868 0 0 1-13.346842-32.227393z m250.687816 22.790602a45.585971 45.585971 0 1 1-32.228126 13.350143 45.576436 45.576436 0 0 1 32.228126-13.350143z m0 0" fill="#0D0408" p-id="3306"></path></svg>