<?xml version="1.0" standalone="no"?><!DOCTYPE svg PUBLIC "-//W3C//DTD SVG 1.1//EN" "http://www.w3.org/Graphics/SVG/1.1/DTD/svg11.dtd"><svg t="1675749277352" class="icon" viewBox="0 0 1211 1024" version="1.1" xmlns="http://www.w3.org/2000/svg" p-id="4601" xmlns:xlink="http://www.w3.org/1999/xlink" width="37.84375" height="32"><path d="M1161.2621 507.363985c-27.689869 73.755477-85.528978 131.151752-157.54972 159.456464v-100.083909c37.761574-29.022028 64.335212-71.142396 73.316303-119.242839 13.380143-71.673064-14.503694-144.78076-72.401359-189.803331s-136.235182-54.519325-203.388421-24.666894c-50.149918-115.992592-178.523899-178.132303-301.774194-146.081444S295.253936 235.574341 309.145716 360.994883a169.630642 169.630642 0 0 0-50.827343-7.839608c-81.991804 0-148.456273 57.070921-148.456273 127.470017 0 52.869132 37.484163 98.217423 90.877375 117.530064v84.614033c-98.867399-17.109455-172.933225-103.088585-171.623757-205.097537 1.427313-111.244763 91.976406-201.174622 204.325324-202.929851 23.94848-132.926012 126.543361-238.412117 259.802047-267.110254 133.256123-28.703627 270.834443 25.053366 348.385108 136.117702 99.106749-21.688568 202.26487 11.989062 268.902081 87.793648 66.640871 75.811905 86.103563 181.618241 50.731822 275.820888z m-812.291062 202.323427c0 21.651238-17.725396 39.196207-39.591096 39.196206s-39.586705-17.544969-39.586705-39.196206c0-21.643918 39.586705-58.79797 39.586705-58.79797s39.591097 37.154051 39.591096 58.79797z m0 137.194043c0 21.643918-17.725396 39.196207-39.591096 39.196206s-39.586705-17.552288-39.586705-39.196206 39.586705-58.79797 39.586705-58.79797 39.591097 37.150392 39.591096 58.79797z m0 137.190383c0 21.651238-17.725396 39.199866-39.591096 39.199866s-39.586705-17.548628-39.586705-39.199866c0-21.643918 39.586705-58.79431 39.586705-58.79431s39.591097 37.150392 39.591096 58.79431z m125.095554-352.7805c0 21.651238-17.727958 39.196207-39.591463 39.196207s-39.587803-17.544969-39.587803-39.196207c0-21.643918 39.587803-58.79797 39.587803-58.797969s39.590731 37.154051 39.590731 58.797969z m0 137.197703c0 21.643918-17.727958 39.192547-39.591463 39.192547s-39.587803-17.548628-39.587803-39.192547c0-21.651238 39.587803-58.80163 39.587803-58.801629s39.590731 37.150392 39.590731 58.801629z m0 137.186724c0 21.651238-17.727958 39.199866-39.591463 39.199866s-39.587803-17.548628-39.587803-39.199866c0-21.643918 39.587803-58.79431 39.587803-58.79431s39.590731 37.150392 39.590731 58.79431z m126.858834-195.988353c0 21.651238-17.724298 39.196207-39.587803 39.196206s-39.587803-17.544969-39.587803-39.196206c0-21.643918 39.587803-58.79797 39.587803-58.79797s39.587071 37.154051 39.587071 58.79797z m0 137.194043c0 21.643918-17.724298 39.196207-39.587803 39.196206s-39.587803-17.552288-39.587803-39.196206 39.587803-58.79797 39.587803-58.79797 39.587071 37.150392 39.587071 58.79797z m0 137.190383c0 21.651238-17.724298 39.199866-39.587803 39.199866s-39.587803-17.548628-39.587803-39.199866c0-21.643918 39.587803-58.79431 39.587803-58.79431s39.587071 37.150392 39.587071 58.79431z m126.862494-333.182396c0 21.651238-17.724298 39.203526-39.584143 39.203526-21.867165 0-39.595122-17.552288-39.595123-39.203526 0-21.643918 39.595122-58.79797 39.595123-58.79797s39.583411 37.154051 39.583411 58.79797z m0 137.194043c0 21.651238-17.724298 39.196207-39.584143 39.196207-21.867165 0-39.595122-17.544969-39.595123-39.196207 0-21.643918 39.595122-58.79797 39.595123-58.79797s39.583411 37.154051 39.583411 58.79797z m0 137.194043c0 21.647578-17.724298 39.196207-39.584143 39.196207-21.867165 0-39.595122-17.548628-39.595123-39.196207s39.595122-58.79797 39.595123-58.79797 39.583411 37.150392 39.583411 58.79797z m125.094822-215.590116c0 21.651238-17.724298 39.196207-39.591463 39.196206-21.859845 0-39.587803-17.544969-39.587803-39.196206 0-21.643918 39.587803-58.79797 39.587803-58.79797s39.590731 37.154051 39.590731 58.79797z m0 137.194043c0 21.643918-17.724298 39.196207-39.591463 39.196206-21.859845 0-39.587803-17.552288-39.587803-39.196206s39.587803-58.79797 39.587803-58.79797 39.590731 37.150392 39.590731 58.79797z m0 137.190383c0 21.651238-17.724298 39.199866-39.591463 39.199866-21.859845 0-39.587803-17.548628-39.587803-39.199866 0-21.643918 39.587803-58.79431 39.587803-58.79431s39.590731 37.150392 39.590731 58.79431z m111.114475-333.182396c0 21.651238-17.724298 39.203526-39.584143 39.203526-21.867165 0-39.595122-17.552288-39.595122-39.203526 0-21.643918 39.595122-58.79797 39.595122-58.79797s39.583411 37.154051 39.583411 58.79797z m0 137.194043c0 21.651238-17.724298 39.196207-39.584143 39.196207-21.867165 0-39.595122-17.544969-39.595122-39.196207 0-21.643918 39.595122-58.79797 39.595122-58.79797s39.583411 37.154051 39.583411 58.79797z m0 137.194043c0 21.647578-17.724298 39.196207-39.584143 39.196207-21.867165 0-39.595122-17.548628-39.595122-39.196207s39.595122-58.79797 39.595122-58.79797 39.583411 37.150392 39.583411 58.79797z" fill="#0D0409" p-id="4602"></path></svg>