<?xml version="1.0" standalone="no"?><!DOCTYPE svg PUBLIC "-//W3C//DTD SVG 1.1//EN" "http://www.w3.org/Graphics/SVG/1.1/DTD/svg11.dtd"><svg t="1675749317550" class="icon" viewBox="0 0 1210 1024" version="1.1" xmlns="http://www.w3.org/2000/svg" p-id="5609" xmlns:xlink="http://www.w3.org/1999/xlink" width="37.8125" height="32"><path d="M1189.732126 578.591175c-37.13467 99.660287-125.894785 171.076218-231.349914 186.142808v-89.159886a207.585192 207.585192 0 1 0-146.708539-387.580699c-50.514155-117.693983-177.01043-183.680367-302.659484-157.875346s-215.774258 136.275255-215.637455 264.321833a273.604585 273.604585 0 0 0 1.559106 28.944871 176.956516 176.956516 0 0 0-53.334923-8.299828c-86.101089 0-155.897032 60.416734-155.897032 134.946476s69.794842 134.946476 155.897032 134.946476a179.944527 179.944527 0 0 0 31.064756-2.692035v85.360229H209.932103v-0.47679c-117.259003-5.468424-209.070579-102.733754-207.576756-219.892264s95.761605-212.050155 213.120366-214.536435c25.196562-140.70941 132.941387-252.343748 272.871061-282.730362 139.930774-30.380745 284.398395 26.487198 365.885616 144.027508 103.995415-23.019461 212.285616 12.567473 282.245501 92.757455a289.836011 289.836011 0 0 1 53.254235 291.795989z m-840.494579 40.530888l33.918533-17.993352-33.443576-18.517823a10.049284 10.049284 0 0 1-5.097994-6.282636 10.466292 10.466292 0 0 1 1.06361-8.134785c3.30086-5.10533 9.814189-6.7851 15.033949-3.862006l33.443942 18.517823v-33.94384c0-6.348653 4.973295-11.494327 11.105559-11.494327s11.098223 5.145673 11.098224 11.494327v34.600344l33.822808-17.945673a11.609123 11.609123 0 0 1 15.161948 3.77765 9.905513 9.905513 0 0 1 1.052608 7.929398 9.527381 9.527381 0 0 1-5.116333 6.007565l-33.914498 17.993352 33.445043 18.514155a10.056252 10.056252 0 0 1 5.097994 6.282636 10.442086 10.442086 0 0 1-1.070946 8.131118 11.259599 11.259599 0 0 1-15.033581 3.865673l-33.445043-18.510487v33.932836a11.573914 11.573914 0 0 1-5.549112 9.957594 10.794911 10.794911 0 0 1-11.105559 0 11.581983 11.581983 0 0 1-5.549112-9.957594v-34.589341l-33.815472 17.945674a11.616092 11.616092 0 0 1-15.163049-3.726304 9.891943 9.891943 0 0 1-1.091484-7.966074 9.488138 9.488138 0 0 1 5.151541-6.025903z m0 145.839312l33.918533-17.993352-33.443576-18.514155a10.049284 10.049284 0 0 1-5.097994-6.282636 10.466292 10.466292 0 0 1 1.06361-8.134785c3.30086-5.108997 9.814189-6.788768 15.033949-3.862006l33.443942 18.517823v-33.94384c0-6.348653 4.973295-11.494327 11.105559-11.494327s11.098223 5.145673 11.098224 11.494327v34.600344l33.822808-17.945673a11.611691 11.611691 0 0 1 15.161948 3.773982 9.915782 9.915782 0 0 1 1.052608 7.933066 9.511977 9.511977 0 0 1-5.116333 6.003897l-33.915232 17.99702 33.445043 18.514155a10.056252 10.056252 0 0 1 5.097994 6.282636 10.435117 10.435117 0 0 1-1.070945 8.12745 11.262533 11.262533 0 0 1-15.033582 3.869341l-33.445043-18.510487v33.932836a11.573914 11.573914 0 0 1-5.549112 9.957594 10.794911 10.794911 0 0 1-11.105558 0 11.581983 11.581983 0 0 1-5.549112-9.957594v-34.589341l-33.815473 17.942006a11.60839 11.60839 0 0 1-15.163049-3.726304 9.887908 9.887908 0 0 1-1.091484-7.966074 9.506109 9.506109 0 0 1 5.152275-6.025903z m0 145.84298l33.918533-17.993352-33.443576-18.517822a10.043782 10.043782 0 0 1-5.097994-6.278969 10.464092 10.464092 0 0 1 1.06361-8.134785c3.30086-5.108997 9.814189-6.788768 15.033949-3.862006l33.443942 18.514155v-33.94384c0-6.348653 4.973295-11.490659 11.105559-11.490659s11.098223 5.142006 11.098224 11.490659v34.600344l33.822808-17.945673a11.616825 11.616825 0 0 1 15.161948 3.77765 9.909181 9.909181 0 0 1 1.052608 7.929399 9.518212 9.518212 0 0 1-5.116333 6.007564l-33.914498 17.993352 33.445043 18.517823a10.046716 10.046716 0 0 1 5.097994 6.282636 10.435117 10.435117 0 0 1-1.070946 8.12745 11.262533 11.262533 0 0 1-15.033581 3.869341l-33.445043-18.510487v33.929169a11.575748 11.575748 0 0 1-5.549112 9.96126 10.794911 10.794911 0 0 1-11.105559 0 11.58345 11.58345 0 0 1-5.549112-9.96126v-34.585674l-33.815472 17.942006a11.60839 11.60839 0 0 1-15.163049-3.726304 9.887908 9.887908 0 0 1-1.091484-7.966074 9.49694 9.49694 0 0 1 5.151541-6.025903z m188.735817-266.273008l33.918166-17.993353-33.441375-18.514154a10.042682 10.042682 0 0 1-5.097995-6.282637 10.465192 10.465192 0 0 1 1.059943-8.134785c3.30086-5.108997 9.814556-6.788768 15.033582-3.862005l33.44871 18.517822v-33.94384c0-6.348653 4.973295-11.494327 11.101892-11.494326s11.101891 5.145673 11.101891 11.494326v34.600344l33.81914-17.945673a11.610957 11.610957 0 0 1 15.161948 3.773983 9.915782 9.915782 0 0 1 1.052608 7.933066 9.511977 9.511977 0 0 1-5.116332 6.003896l-33.914499 17.997021 33.445043 18.514154a10.056252 10.056252 0 0 1 5.097994 6.282636 10.435117 10.435117 0 0 1-1.070945 8.12745 11.261433 11.261433 0 0 1-15.033582 3.869341l-33.441375-18.510487v33.932837a11.581983 11.581983 0 0 1-5.549112 9.957593 10.794911 10.794911 0 0 1-11.105559 0 11.573914 11.573914 0 0 1-5.549112-9.957593v-34.589341l-33.815472 17.942006a11.611691 11.611691 0 0 1-15.165616-3.726304 9.898911 9.898911 0 0 1-1.089284-7.966075 9.491438 9.491438 0 0 1 5.149708-6.025902z m0 145.84298l33.918166-17.993353-33.441375-18.517822a10.035713 10.035713 0 0 1-5.097995-6.278969 10.463358 10.463358 0 0 1 1.059943-8.134785c3.30086-5.108997 9.814556-6.788768 15.033582-3.862005l33.44871 18.514154v-33.943839c0-6.348653 4.973295-11.490659 11.101892-11.490659s11.101891 5.142006 11.101891 11.490659v34.600344l33.81914-17.945674a11.615725 11.615725 0 0 1 15.161948 3.777651 9.909181 9.909181 0 0 1 1.052608 7.929398 9.518212 9.518212 0 0 1-5.116332 6.007564l-33.914499 17.993353 33.445043 18.517822a10.046716 10.046716 0 0 1 5.097994 6.282636 10.435117 10.435117 0 0 1-1.070945 8.12745 11.261433 11.261433 0 0 1-15.033582 3.869341l-33.441375-18.510487v33.929169a11.58345 11.58345 0 0 1-5.549112 9.961261 10.794911 10.794911 0 0 1-11.105559 0 11.575748 11.575748 0 0 1-5.549112-9.961261v-34.585673l-33.815472 17.942005a11.611691 11.611691 0 0 1-15.165616-3.726303 9.898911 9.898911 0 0 1-1.089284-7.966075 9.473467 9.473467 0 0 1 5.149708-6.025902z m0 145.84298l33.918166-17.993353-33.441375-18.517822a10.042682 10.042682 0 0 1-5.097995-6.282636 10.465192 10.465192 0 0 1 1.059943-8.134785c3.30086-5.10533 9.814556-6.7851 15.033582-3.862006l33.44871 18.517822v-33.943839c0-6.348653 4.973295-11.494327 11.101892-11.494327s11.101891 5.145673 11.101891 11.494327v34.600344l33.81914-17.945674a11.60839 11.60839 0 0 1 15.161948 3.777651 9.905513 9.905513 0 0 1 1.052608 7.929398 9.518212 9.518212 0 0 1-5.116332 6.007564l-33.914499 17.993353 33.445043 18.514155a10.056252 10.056252 0 0 1 5.097994 6.282636 10.442086 10.442086 0 0 1-1.070945 8.131117 11.261433 11.261433 0 0 1-15.033582 3.869341l-33.441375-18.514155v33.932837a11.589685 11.589685 0 0 1-5.549112 9.961261 10.794911 10.794911 0 0 1-11.105559 0 11.580149 11.580149 0 0 1-5.549112-9.961261v-34.589341l-33.815472 17.945673a11.619393 11.619393 0 0 1-15.165616-3.726303 9.898911 9.898911 0 0 1-1.089284-7.966075 9.473467 9.473467 0 0 1 5.149708-6.025902z m184.052264-329.803553l33.918166-17.993353-33.445043-18.514155a10.065788 10.065788 0 0 1-5.097995-6.282636 10.480229 10.480229 0 0 1 1.063611-8.134785c3.30086-5.108997 9.814556-6.788768 15.033581-3.862006l33.445043 18.514155v-33.940172c0-6.348653 4.973295-11.494327 11.105559-11.494326s11.098223 5.145673 11.098224 11.494326v34.600344l33.822808-17.945673a11.611691 11.611691 0 0 1 15.161948 3.773983 9.89341 9.89341 0 0 1 1.04894 7.929398 9.493272 9.493272 0 0 1-5.112665 6.007564l-33.914498 17.993353 33.445043 18.517822a10.046716 10.046716 0 0 1 5.097994 6.282636 10.435117 10.435117 0 0 1-1.070946 8.12745 11.262533 11.262533 0 0 1-15.033581 3.869341l-33.445043-18.510487v33.932837a11.573914 11.573914 0 0 1-5.549112 9.957593 10.794911 10.794911 0 0 1-11.105559 0 11.581983 11.581983 0 0 1-5.549112-9.957593v-34.589341l-33.815472 17.942005a11.606923 11.606923 0 0 1-15.161949-3.726303 9.885341 9.885341 0 0 1-1.092951-7.966075 9.507209 9.507209 0 0 1 5.153375-6.025902z m0 145.84298l33.918166-17.993353-33.445043-18.517822a10.058819 10.058819 0 0 1-5.097995-6.278969 10.480229 10.480229 0 0 1 1.063611-8.134785c3.30086-5.108997 9.814556-6.788768 15.033581-3.865673l33.445043 18.517822v-33.943839c0-6.348653 4.973295-11.490659 11.105559-11.490659s11.098223 5.142006 11.098224 11.490659v34.600343l33.822808-17.945673a11.609123 11.609123 0 0 1 15.161948 3.777651 9.89341 9.89341 0 0 1 1.04894 7.929398 9.502441 9.502441 0 0 1-5.112665 6.007564l-33.914498 17.993353 33.445043 18.517822a10.046716 10.046716 0 0 1 5.097994 6.282636 10.435117 10.435117 0 0 1-1.070946 8.12745 11.262533 11.262533 0 0 1-15.033581 3.869341l-33.445043-18.510487v33.929169a11.575748 11.575748 0 0 1-5.549112 9.961261 10.794911 10.794911 0 0 1-11.105559 0 11.58345 11.58345 0 0 1-5.549112-9.961261v-34.585673l-33.815472 17.942005a11.610957 11.610957 0 0 1-15.161949-3.726303 9.885341 9.885341 0 0 1-1.092951-7.966075 9.489238 9.489238 0 0 1 5.153375-6.025902z m0 145.842979l33.918166-17.993352-33.445043-18.517822a10.065788 10.065788 0 0 1-5.097995-6.282636 10.482063 10.482063 0 0 1 1.063611-8.134786c3.30086-5.10533 9.814556-6.7851 15.033581-3.862005l33.445043 18.517822v-33.943839c0-6.348653 4.973295-11.494327 11.105559-11.494327s11.098223 5.145673 11.098224 11.494327v34.600343l33.822808-17.945673a11.609123 11.609123 0 0 1 15.161948 3.77765 9.889742 9.889742 0 0 1 1.04894 7.929399 9.502441 9.502441 0 0 1-5.112665 6.007564l-33.914132 17.993353 33.445043 18.514154a10.056252 10.056252 0 0 1 5.097995 6.282636 10.442086 10.442086 0 0 1-1.070946 8.131118 11.259599 11.259599 0 0 1-15.033582 3.865673l-33.445043-18.510487v33.932837a11.580149 11.580149 0 0 1-5.549111 9.961261 10.794911 10.794911 0 0 1-11.105559 0 11.589685 11.589685 0 0 1-5.549112-9.961261v-34.589341l-33.815473 17.945673a11.614625 11.614625 0 0 1-15.161948-3.726303 9.887542 9.887542 0 0 1-1.092951-7.966075 9.489238 9.489238 0 0 1 5.153008-6.025903z" fill="#0D0409" p-id="5610"></path></svg>