<?xml version="1.0" standalone="no"?><!DOCTYPE svg PUBLIC "-//W3C//DTD SVG 1.1//EN" "http://www.w3.org/Graphics/SVG/1.1/DTD/svg11.dtd"><svg t="1675749212790" class="icon" viewBox="0 0 1210 1024" version="1.1" xmlns="http://www.w3.org/2000/svg" p-id="2873" xmlns:xlink="http://www.w3.org/1999/xlink" width="37.8125" height="32"><path d="M496.774399 863.317532c0 24.289551-14.476294 46.183481-36.674255 55.476587a58.933022 58.933022 0 0 1-64.74039-13.014745 60.526074 60.526074 0 0 1-12.882876-65.443692c9.194205-22.439721 30.861027-37.073525 54.88684-37.073525a59.102254 59.102254 0 0 1 42.011289 17.589869 60.3997 60.3997 0 0 1 17.399392 42.465506z m594.081174-100.084965c0 78.224003-52.66338 140.114556-118.814037 140.114555l-653.49039 120.11075 514.87035-180.158798s158.418716-42.872102 158.418716-100.088629-178.221055-20.014795-178.221055-20.014795l-514.875478 80.066507 514.875478-180.155135s138.620039-19.849959 138.620039-100.084965c0-80.242332-198.030721-20.022121-198.03072-20.022121L259.141564 603.092227l495.066912-160.14034s158.422379-58.333751 158.422378-100.092291c0-41.749017-79.209358-40.030689-79.209358-40.03069-23.736434-4.307357-40.659632-25.692492-39.604678-50.043215 0-23.784786 16.556895-44.281269 39.604678-49.040277v-1.002572s176.356573-17.033089 178.221056 120.101592c0 0 1.699646 80.241966-19.80234 100.084599 36.945319 19.315157 59.941821 58.048034 59.410682 100.092291 0.992681 73.963899-19.802339 100.084965-19.80234 100.084965s59.407018 61.894216 59.407019 140.125545zM496.774399 122.67487c-32.809759 0-59.410681-26.888837-59.410681-60.053909s26.600923-60.054642 59.410681-60.054642 59.410681 26.888837 59.410682 60.053909-26.600923 60.054642-59.410682 60.054642z m0 200.171029c0 24.289185-14.476294 46.186777-36.674255 55.483548a58.935586 58.935586 0 0 1-64.74039-13.01731 60.534133 60.534133 0 0 1-12.882876-65.449186c9.194205-22.437523 30.861027-37.069862 54.88684-37.069862a59.089067 59.089067 0 0 1 42.011289 17.593532 60.381018 60.381018 0 0 1 17.399392 42.460377zM239.340689 262.791257c-32.815253 0-59.409583-26.882976-59.409582-60.047682 0-33.1713 26.593597-60.053909 59.409582-60.053909 32.809392 0 59.404088 26.88261 59.404088 60.053909 0 33.164706-26.593597 60.047682-59.404088 60.047682z m19.800875 200.175425c0 33.165072-26.60019 60.055375-59.409583 60.055375s-59.409949-26.890302-59.409949-60.055375 26.600557-60.051712 59.409949-60.051712 59.409583 26.886639 59.409583 60.051712z m-19.800875 260.228968c0 33.165072-26.60019 60.051712-59.409582 60.051712S120.521158 756.360723 120.521158 723.19565s26.600557-60.055375 59.409949-60.055375a59.073683 59.073683 0 0 1 42.004696 17.593533 60.364534 60.364534 0 0 1 17.404886 42.461842z m0 0" fill="#0D0409" p-id="2874"></path></svg>