<?xml version="1.0" standalone="no"?><!DOCTYPE svg PUBLIC "-//W3C//DTD SVG 1.1//EN" "http://www.w3.org/Graphics/SVG/1.1/DTD/svg11.dtd"><svg t="1675749189995" class="icon" viewBox="0 0 1214 1024" version="1.1" xmlns="http://www.w3.org/2000/svg" p-id="2297" xmlns:xlink="http://www.w3.org/1999/xlink" width="37.9375" height="32"><path d="M1072.095242 342.505922h-608.584692a48.465669 48.465669 0 0 1 0-96.930971h608.584692a48.465669 48.465669 0 0 1 0 96.930971z m-97.826903-243.033364H147.237643a48.639725 48.639725 0 0 1-48.655116-48.651084v-0.333089A48.639359 48.639359 0 0 1 147.237643 1.83217h827.030696a48.648153 48.648153 0 0 1 48.651451 48.658047v0.333089a48.64852 48.64852 0 0 1-48.651451 48.651084zM293.374114 464.378229h632.444313a48.649985 48.649985 0 0 1 48.644122 48.647786v0.340784a48.653283 48.653283 0 0 1-48.644122 48.651451H293.374114a48.651451 48.651451 0 0 1-48.653283-48.651451v-0.340784a48.651451 48.651451 0 0 1 48.653283-48.647786z m0 243.026402h365.203948a48.654749 48.654749 0 0 1 48.647786 48.658779v0.333455a48.64229 48.64229 0 0 1-48.647786 48.647787H293.374114a48.651451 48.651451 0 0 1-48.653283-48.647787v-0.333455a48.662444 48.662444 0 0 1 48.653283-48.658779z m121.664538 219.483013h97.640021a48.470066 48.470066 0 0 1 0 96.929139h-97.683993a48.4697 48.4697 0 0 1 0-96.89616z m0 0" fill="#0D0409" p-id="2298"></path></svg>