<?xml version="1.0" standalone="no"?><!DOCTYPE svg PUBLIC "-//W3C//DTD SVG 1.1//EN" "http://www.w3.org/Graphics/SVG/1.1/DTD/svg11.dtd"><svg t="1675749219118" class="icon" viewBox="0 0 1210 1024" version="1.1" xmlns="http://www.w3.org/2000/svg" p-id="3017" xmlns:xlink="http://www.w3.org/1999/xlink" width="37.8125" height="32"><path d="M945.85765 727.546132v-88.580401c97.492722-29.726074 159.017077-126.41192 145.069112-227.97937-13.944298-101.561215-99.220172-177.826476-201.066361-179.825696a198.033971 198.033971 0 0 0-82.781891 18.194338c-40.706934-98.741547-136.285158-163.282521-242.499484-163.764814-145.718281 0-263.839175 121.041421-263.839175 270.430625a281.411117 281.411117 0 0 0 1.530865 29.002452 168.600573 168.600573 0 0 0-52.05749-8.314498c-84.053456 0-152.191266 60.537765-152.191266 135.214212s68.137811 135.228883 152.226109 135.228882c4.804585 0 9.532516-0.249398 14.217902-0.638166v83.475072H202.131438v-1.980516C91.25043 711.925731 10.819484 613.42808 16.614327 500.821089s95.908309-202.21616 207.855862-206.683691C252.464413 126.749708 395.938109 3.834132 564.579026 2.750716c113.945673 0.214556 220.369054 57.262212 284.130659 152.299095a279.520458 279.520458 0 0 1 60.805501-6.731186c150.80894 2.496917 274.396791 121.2149 283.899599 272.722154s-98.255587 284.930201-247.557135 306.50682z m-412.944871-122.095129h144.584986l-123.932607 166.315645h103.276561l-247.865215 249.478968 103.276562-207.895473H408.976504z m289.173639 74.84149c-1.162636 27.855587-23.938567 49.828309-51.636447 49.828309s-50.473811-21.972722-51.640114-49.828309c0-27.551175 51.640115-74.84149 51.640114-74.84149s51.636447 47.290315 51.636447 74.84149z m0 207.902808c-1.162636 27.848252-23.938567 49.824642-51.636447 49.824642s-50.473811-21.97639-51.640114-49.824642c0-27.55851 51.640115-74.845158 51.640114-74.845158s51.636447 47.286648 51.636447 74.845158z m0 0" fill="#0D0408" p-id="3018"></path></svg>