<?xml version="1.0" standalone="no"?><!DOCTYPE svg PUBLIC "-//W3C//DTD SVG 1.1//EN" "http://www.w3.org/Graphics/SVG/1.1/DTD/svg11.dtd"><svg t="1675749248360" class="icon" viewBox="0 0 1210 1024" version="1.1" xmlns="http://www.w3.org/2000/svg" p-id="3881" xmlns:xlink="http://www.w3.org/1999/xlink" width="37.8125" height="32"><path d="M1016.043461 511.878968c-16.691347 62.984069-58.029112 116.736734-114.82957 149.312551v12.983381h-25.647679a248.880413 248.880413 0 0 1-56.389685 16.614326v-76.356217c80.617994-28.090315 128.913238-109.988309 114.129055-193.536734-14.780516-83.56016-88.290659-144.214189-173.716906-143.340928a177.810338 177.810338 0 0 0-71.529627 15.010842c-44.220516-104.057398-158.708997-160.060883-268.737651-131.458567s-182.192779 133.125135-169.390579 245.345559a151.774258 151.774258 0 0 0-45.423862-6.997823c-72.921123 0-132.04392 50.451805-132.04392 112.687679s59.122063 112.680344 132.04392 112.680344a154.993696 154.993696 0 0 0 22.456481-1.753123v66.816733a183.388424 183.388424 0 0 1-40.120114 4.511175c-100.976963 0.275072-183.262625-80.401605-184.264986-180.670716C1.582946 413.462006 82.247519 331.186246 183.210544 329.476401 200.186865 237.337307 259.874476 158.514613 344.306063 116.742968a301.474109 301.474109 0 0 1 268.053272 0.415909c32.693181-71.084011 105.40745-115.506246 184.041261-112.430212 78.644814 3.069799 147.610774 53.031977 174.575129 126.446762 72.391519-16.208688 147.750143 9.984367 194.152894 67.484241a191.624436 191.624436 0 0 1 24.019255 202.863862c-31.713926 66.62235-98.901089 109.460172-173.104413 110.355072z m-22.845616-324.631472a132.96596 132.96596 0 0 0-61.876447 15.226132c-19.519083-49.358854-63.541547-85.047748-116.157249-94.152986-52.615702-9.111473-106.199656 9.673719-141.390487 49.566808a299.028905 299.028905 0 0 1 50.308768 55.320573 250.828653 250.828653 0 0 1 53.176848-5.827484c134.451347-0.366762 244.278281 106.569719 246.544871 240.061982 65.595415-15.393009 109.177765-77.144756 101.35106-143.628469-7.815702-66.476745-64.553811-116.597731-131.957364-116.566556zM410.643805 613.483095h143.084929l-122.645273 162.372951h102.201949L288.004401 1019.415473l102.199748-202.969857H288.004401z m224.847221 60.886189c0-22.416504 40.88298-60.886189 40.88298-60.886189s40.875645 38.469685 40.875644 60.886189-18.3051 40.593238-40.875644 40.593237c-22.581547 0-40.88298-18.173066-40.88298-40.593237z m40.88298 101.486762c33.899828 0 61.384986 27.283438 61.384985 60.952206s-27.485158 60.955874-61.384985 60.955874c-33.907163 0-61.384986-27.290774-61.384986-60.955874s27.477822-60.952206 61.384986-60.952206z m0 0" fill="#0D0408" p-id="3882"></path></svg>