<?xml version="1.0" standalone="no"?><!DOCTYPE svg PUBLIC "-//W3C//DTD SVG 1.1//EN" "http://www.w3.org/Graphics/SVG/1.1/DTD/svg11.dtd"><svg class="icon" width="200px" height="176.70px" viewBox="0 0 1159 1024" version="1.1" xmlns="http://www.w3.org/2000/svg"><path d="M890.254751 941.185605h-621.107966c-17.745942 0-32.534227 17.745942-32.534227 41.407197s14.788285 41.407198 32.534227 41.407198h621.107966c17.745942 0 32.534227-17.745942 32.534227-41.407198 0-20.703599-14.788285-41.407198-32.534227-41.407197zM709.837675 341.609381H588.573739l68.026111-156.75582H556.039512l-106.475651 242.527873h100.560337l-68.02611 209.993645zM1041.095257 82.814395a35.491884 35.491884 0 0 1 35.491884 35.491884v585.616083a35.491884 35.491884 0 0 1-35.491884 35.491883H118.306279a35.491884 35.491884 0 0 1-35.491884-35.491883V118.306279a35.491884 35.491884 0 0 1 35.491884-35.491884h922.788978m0-82.814395H118.306279A118.306279 118.306279 0 0 0 0 118.306279v585.616083a118.306279 118.306279 0 0 0 118.306279 118.306279h922.788978a118.306279 118.306279 0 0 0 118.30628-118.306279V118.306279a118.306279 118.306279 0 0 0-118.30628-118.306279z" /></svg>