<?xml version="1.0" standalone="no"?><!DOCTYPE svg PUBLIC "-//W3C//DTD SVG 1.1//EN" "http://www.w3.org/Graphics/SVG/1.1/DTD/svg11.dtd"><svg class="icon" width="200px" height="197.30px" viewBox="0 0 1038 1024" version="1.1" xmlns="http://www.w3.org/2000/svg"><path d="M830.76705 523.20997v-460.691706H509.277997V0h325.235466a57.776711 57.776711 0 0 1 57.718173 57.718173v465.491797zM57.776711 901.480592A57.776711 57.776711 0 0 1 0 844.113645V58.537701C0 26.634654 23.41508 0.643915 55.083976 0.585377L368.787515 0v62.576802H61.171897v776.561139l501.609558-0.351226h10.595324v63.162179L57.776711 901.480592zM954.164523 896.387812c40.098325-38.166581 48.527754-76.099011 48.527754-129.661007a199.028183 199.028183 0 0 0-199.028183-199.028183h-0.468301a198.618419 198.618419 0 0 0-198.442806 198.442806v0.702452a199.028183 199.028183 0 0 0 199.028183 199.028183 202.013605 202.013605 0 0 0 102.792202-29.678614l87.806551 87.806551 43.961814-43.961813z m-150.910193 6.61476a136.802607 136.802607 0 1 1 136.744069-136.744069 136.919682 136.919682 0 0 1-136.509918 136.744069zM607.562797 416.964043a33.366489 33.366489 0 0 0 33.307951-33.36649c0-18.380838-14.927114-29.79569-33.307951-29.795689H517.883039l89.562682-89.62122a33.307952 33.307952 0 1 0-46.83016-46.830161L438.213228 339.518665 316.103584 217.116332a33.307952 33.307952 0 0 0-46.83016 46.830161l89.269993 89.855371H274.483279c-18.380838 0-33.307952 11.70754-33.307952 29.795689a33.366489 33.366489 0 0 0 33.307952 33.36649h133.231807v70.245241H274.483279c-18.380838 0-33.307952 11.70754-33.307952 29.795689A33.307952 33.307952 0 0 0 274.483279 550.254387h133.231807v77.738067a33.307952 33.307952 0 1 0 66.615904 0V550.254387h133.173269a33.249414 33.249414 0 0 0 33.307952-33.249414c0-18.439376-14.927114-29.79569-33.307952-29.795689H474.155376v-70.245241z" /></svg>