<?xml version="1.0" standalone="no"?><!DOCTYPE svg PUBLIC "-//W3C//DTD SVG 1.1//EN" "http://www.w3.org/Graphics/SVG/1.1/DTD/svg11.dtd"><svg class="icon" width="200px" height="200.00px" viewBox="0 0 1024 1024" version="1.1" xmlns="http://www.w3.org/2000/svg"><path d="M512 1024a512 512 0 1 1 512-512 512.702157 512.702157 0 0 1-512 512z m0-971.465902a459.593567 459.593567 0 1 0 459.593567 459.593567 459.976562 459.976562 0 0 0-459.593567-459.593567zM737.966837 498.65902h-45.384865l5.48959-5.553422 9.383369-9.383369a13.34098 13.34098 0 0 0-19.149732-19.149732l-33.703528 33.767361H577.109089a66.19424 66.19424 0 0 0-9.766364-23.426506l0.957487-0.893654 54.129909-54.066076H670.240618a13.34098 13.34098 0 0 0 0-26.618128h-21.064705l3.893779-3.893779 28.213938-28.213938a13.34098 13.34098 0 0 0-18.830569-19.149732l-28.150106 28.213939-3.893779 3.893778v-21.064705a13.34098 13.34098 0 1 0-26.618128 0v47.682833l-54.129908 54.066076-0.893655 1.021319A66.19424 66.19424 0 0 0 525.213315 446.827079a9.447201 9.447201 0 0 0 0-1.340481v-76.598928l33.703528-33.767361a13.277147 13.277147 0 0 0-18.830569-18.766737L530.766737 325.545443l-5.48959 5.48959v-45.129535a13.34098 13.34098 0 0 0-26.618127 0v45.448697l-5.48959-5.808752-9.383368-9.383368a13.34098 13.34098 0 1 0-19.149732 19.149732l33.703528 33.703528v76.598928a8.553547 8.553547 0 0 0 0 1.276648 66.385737 66.385737 0 0 0-23.426506 9.766364l-0.893654-0.957487-54.193741-54.193741v-47.746665a13.277147 13.277147 0 1 0-26.554295 0v21.064705l-3.957611-3.893779-28.213939-28.213938a13.34098 13.34098 0 0 0-19.149732 19.149731l28.213939 28.213939 3.957611 3.893779h-20.426381a13.34098 13.34098 0 0 0 0 26.618127h47.682833l54.129909 54.066077a6.830071 6.830071 0 0 0 1.021319 0.893654A65.045256 65.045256 0 0 0 446.827079 498.65902H368.951502l-33.703528-33.767361a13.34098 13.34098 0 0 0-19.149732 19.149732L325.545443 493.105598l5.48959 5.553422H285.969331a13.277147 13.277147 0 1 0 0 26.554295h45.384864l-5.48959 5.553422-9.383368 9.383369a13.34098 13.34098 0 0 0 9.383368 22.724349 13.468645 13.468645 0 0 0 9.383369-3.893779l33.703528-33.767361H446.827079A65.683581 65.683581 0 0 0 456.593442 548.958983l-1.021319 0.893654-54.129909 54.129909h-47.682832a13.34098 13.34098 0 0 0 0 26.618127h21.064705l-3.893779 3.893779-28.213938 28.213938a13.34098 13.34098 0 0 0 0 19.149732 13.277147 13.277147 0 0 0 18.766737 0l28.213938-28.213938 3.957612-3.893779V670.240618a13.277147 13.277147 0 1 0 26.554295 0v-47.810497L474.33886 568.108715l0.893655-1.021319a66.19424 66.19424 0 0 0 23.426505 9.766363 9.447201 9.447201 0 0 0 0 1.340481v76.598928l-33.703528 33.767361a13.277147 13.277147 0 0 0 19.149732 18.766737l9.383368-9.383369 5.48959-5.48959v45.384865a13.34098 13.34098 0 1 0 26.618128 0v-45.384865l5.553422 5.48959 9.383369 9.383369a12.766488 12.766488 0 0 0 9.383368 3.957611 13.34098 13.34098 0 0 0 9.383369-22.724348l-33.767361-33.767361V577.109089A66.832565 66.832565 0 0 0 548.958983 567.342725l0.893654 0.957487 54.066076 54.129909V670.240618a13.34098 13.34098 0 0 0 26.618128 0v-21.128537l3.957611 3.957611 28.150106 28.213938a13.468645 13.468645 0 0 0 9.383369 3.893779 13.34098 13.34098 0 0 0 9.383368-22.724348l-28.022441-28.150106-3.957611-3.957612H670.240618a13.277147 13.277147 0 0 0 0-26.554295h-47.746665L568.108715 549.533475l-0.702157-0.574492a67.343224 67.343224 0 0 0 9.766363-23.426506h77.875577l33.703528 33.767361a13.277147 13.277147 0 0 0 18.766737-18.83057l-9.383368-9.383368-5.48959-5.553423h45.384864a13.277147 13.277147 0 1 0 0-26.554295zM551.895275 511.936168A39.959107 39.959107 0 1 1 511.936168 472.360055a39.959107 39.959107 0 0 1 39.959107 39.576113z" /></svg>