<?xml version="1.0" standalone="no"?><!DOCTYPE svg PUBLIC "-//W3C//DTD SVG 1.1//EN" "http://www.w3.org/Graphics/SVG/1.1/DTD/svg11.dtd"><svg t="1675749224734" class="icon" viewBox="0 0 1211 1024" version="1.1" xmlns="http://www.w3.org/2000/svg" p-id="3161" xmlns:xlink="http://www.w3.org/1999/xlink" width="37.84375" height="32"><path d="M1152.002565 500.797248c-34.738864 92.573466-117.78314 158.929752-216.467598 172.97624v-82.79881c69.071061-21.183306 120.582179-78.578269 133.727406-149.012213s-14.244326-142.277666-71.115386-186.519708-133.815334-53.57486-199.779607-24.239169c-49.257965-113.987584-175.357622-175.053172-296.419742-143.556284s-200.588178 146.062964-186.942861 269.312656a166.555303 166.555303 0 0 0-49.926584-7.702854c-80.536864 0-145.822261 56.083738-145.82226 125.268372s65.286496 125.264342 145.82226 125.264342a169.33236 169.33236 0 0 0 29.055422-2.502282v79.285356H235.457469v-0.534895c-110.271529-4.509971-196.91792-95.097731-195.515103-204.417806s90.345959-197.694983 200.698821-199.420203c23.525853-130.62758 124.300432-234.289126 255.195459-262.49128 130.89173-28.207283 266.025983 24.619823 342.204553 133.76331 97.347221-21.313366 198.673181 11.781978 264.131869 86.275262 65.458688 74.500977 84.575688 178.4765 49.829497 271.049966z m-705.94046 137.255514c0 21.278562-17.413396 38.519765-38.889795 38.519766s-38.882468-17.241204-38.882468-38.519766c0-21.267571 38.882468-57.779648 38.882468-57.779647s38.889795 36.512077 38.889795 57.779647z m0 134.822842c0 21.271234-17.413396 38.519765-38.889795 38.519765s-38.882468-17.248531-38.882468-38.519765 38.882468-57.779648 38.882468-57.779647 38.889795 36.50475 38.889795 57.779647z m0 134.815515c0 21.274898-17.413396 38.523429-38.889795 38.523429s-38.882468-17.248531-38.882468-38.523429c0-21.267571 38.882468-57.775984 38.882468-57.775984s38.889795 36.508414 38.889795 57.775984z m155.54819-192.595162c0 21.274898-17.413396 38.516102-38.889795 38.516101s-38.886132-17.241204-38.886132-38.516101 38.886132-57.783311 38.886132-57.783312 38.889795 36.512077 38.889795 57.783312z m0 134.819178c0 21.271234-17.413396 38.519765-38.889795 38.519765s-38.886132-17.248531-38.886132-38.519765 38.886132-57.779648 38.886132-57.779648 38.889795 36.50475 38.889795 57.779648z m0 134.815514c0 21.274898-17.413396 38.523429-38.889795 38.523429s-38.886132-17.248531-38.886132-38.523429c0-21.267571 38.886132-57.775984 38.886132-57.775984s38.889795 36.508414 38.889795 57.775984z m155.544526-327.418004c0 21.274898-17.409732 38.523429-38.882468 38.523429-21.480063 0-38.889795-17.248531-38.889795-38.523429s38.889795-57.783311 38.889795-57.783311 38.882468 36.512077 38.882468 57.783311z m0 134.822842c0 21.274898-17.409732 38.516102-38.882468 38.516101-21.480063 0-38.889795-17.241204-38.889795-38.516101s38.889795-57.783311 38.889795-57.783312 38.882468 36.512077 38.882468 57.783312z m0 134.819178c0 21.271234-17.409732 38.519765-38.882468 38.519765-21.480063 0-38.889795-17.248531-38.889795-38.519765s38.889795-57.779648 38.889795-57.779648 38.882468 36.50475 38.882468 57.779648z m138.343623-211.858708c0 21.274898-17.409732 38.516102-38.889795 38.516101-21.472736 0-38.882468-17.241204-38.882468-38.516101s38.882468-57.783311 38.882468-57.783312 38.889795 36.512077 38.889795 57.783312z m0 134.819178c0 21.271234-17.409732 38.519765-38.889795 38.519765-21.472736 0-38.882468-17.248531-38.882468-38.519765s38.882468-57.779648 38.882468-57.779648 38.889795 36.50475 38.889795 57.779648z m0 134.815514c0 21.274898-17.409732 38.523429-38.889795 38.523429-21.472736 0-38.882468-17.248531-38.882468-38.523429 0-21.267571 38.882468-57.775984 38.882468-57.775984s38.889795 36.508414 38.889795 57.775984z" fill="#0D0408" p-id="3162"></path></svg>