<?xml version="1.0" standalone="no"?><!DOCTYPE svg PUBLIC "-//W3C//DTD SVG 1.1//EN" "http://www.w3.org/Graphics/SVG/1.1/DTD/svg11.dtd"><svg t="1675749298904" class="icon" viewBox="0 0 1210 1024" version="1.1" xmlns="http://www.w3.org/2000/svg" p-id="5033" xmlns:xlink="http://www.w3.org/1999/xlink" width="37.8125" height="32"><path d="M1166.410086 475.98212h-65.111289c-23.736848 0-42.984527-19.188997-42.984528-42.85616s19.247679-42.852493 42.984528-42.852493h65.111289c23.736848 0 42.984527 19.188997 42.984527 42.852493s-19.247679 42.85616-42.984527 42.85616z m-120.837135-224.802475a43.087587 43.087587 0 1 1-61.029226-60.840711l45.77192-45.634384a43.089054 43.089054 0 1 1 61.032894 60.841078z m-62.573295 294.648664h0.029341a247.869983 247.869983 0 0 1 18.818567 79.697422 43.082819 43.082819 0 0 1 44.10682 10.228997l45.775587 45.63255a43.087954 43.087954 0 1 1-61.029226 60.842178l-36.28745-36.111404c-24.606074 95.695587-104.948997 166.964814-203.145902 180.212263v-75.296275c74.467393-22.332149 125.30063-90.88 124.878853-168.406189a179.29059 179.29059 0 0 0-2.288596-27.276103 492.846946 492.846946 0 0 0-14.655816-48.137536c-27.947278-60.633123-88.620745-99.619943-155.551175-99.953696a169.546453 169.546453 0 0 0-83.207335 21.767335q-5.116332-9.847564-11.178911-19.174327l0.135702 1.346018a238.190395 238.190395 0 0 0-64.337422-63.01341c0.15404-1.298338 0.454785-2.54533 0.630831-3.821662a229.373066 229.373066 0 0 0-236.158166-13.680229c-75.155438 39.518625-122.153077 117.31255-122.03608 202.019942v0.469456a146.637387 146.637387 0 0 0-27.754728-2.765387c-71.531461 0-129.523897 50.957937-129.523897 113.824642s58.015175 113.725616 129.554705 113.725616c3.457834 0 6.711748-0.66384 10.106499-0.898567v69.020974a178.043966 178.043966 0 0 1-27.601421 2.391289c-99.923255-1.910831-180.244905-82.631519-181.349594-182.258796s77.394521-182.097421 177.256161-186.216161c23.612516-141.03106 145.506292-244.729765 288.926074-245.794842a288.52337 288.52337 0 0 1 150.889628 42.48353c63.981662-99.243645 196.236103-128.557479 296.37318-65.690407s130.756951 194.431633 68.623771 294.832779z m-66.152894-186.087426a151.551633 151.551633 0 0 0-238.787851 5.446418 300.108287 300.108287 0 0 1 30.775015 37.966854c88.69043-20.003209 181.059484 12.13616 238.006647 82.811232a149.45302 149.45302 0 0 0-29.993811-126.224504z m-117.715988-184.364379a42.930613 42.930613 0 0 1-42.984528-42.852126v-64.916905c0-23.662395 19.247679-42.851759 42.991863-42.85176 23.736848 0 42.984527 19.189364 42.984527 42.85176v64.916905a42.919977 42.919977 0 0 1-42.991862 42.852126z m-244.336963 76.178338l-45.775588-45.634384a43.090155 43.090155 0 0 1 61.036562-60.84071l45.768252 45.627782a43.089788 43.089788 0 1 1-61.029226 60.847312zM273.608619 780.581777l36.305421-18.56917-35.795988-19.108309a10.452722 10.452722 0 0 1-4.318992-14.875874 12.329077 12.329077 0 0 1 16.092057-3.986705l35.798556 19.10831v-35.025788a11.883095 11.883095 0 0 1 23.766189 0v35.704298l36.199427-18.517823a12.704642 12.704642 0 0 1 16.229227 3.895015 9.912481 9.912481 0 0 1-4.3498 14.384412l-36.299919 18.569169 35.795988 19.104642a10.442819 10.442819 0 0 1 4.313123 14.872206 12.313673 12.313673 0 0 1-16.093524 3.990373l-35.797089-19.100974v35.014785a11.883095 11.883095 0 0 1-23.766189 0v-35.693295l-36.194292 18.517822a12.709777 12.709777 0 0 1-16.229593-3.843668 9.892309 9.892309 0 0 1 4.345398-14.439426z m0 171.332951l36.305421-18.569169-35.795988-19.10831a10.452722 10.452722 0 0 1-4.318992-14.875874 12.329077 12.329077 0 0 1 16.092057-3.986705l35.798556 19.10831v-35.025788a11.883095 11.883095 0 0 1 23.766189 0v35.704298l36.199427-18.517822a12.704642 12.704642 0 0 1 16.229227 3.895014 9.912481 9.912481 0 0 1-4.3498 14.384413l-36.299919 18.569169 35.795988 19.104641a10.442819 10.442819 0 0 1 4.313123 14.872207 12.313673 12.313673 0 0 1-16.093524 3.990372l-35.795989-19.100974v35.014785a11.883095 11.883095 0 0 1-23.766189 0v-35.693295l-36.194292 18.517822a12.705742 12.705742 0 0 1-16.229593-3.843667 9.892309 9.892309 0 0 1 4.344298-14.439427z m171.299576-171.332951l36.305788-18.56917-35.795989-19.108309a10.452722 10.452722 0 0 1-4.320458-14.875874 12.331645 12.331645 0 0 1 16.093524-3.986705l35.795989 19.10831v-35.025788a11.883095 11.883095 0 0 1 23.766189 0v35.704298l36.199427-18.517823a12.704642 12.704642 0 0 1 16.229226 3.895015 9.912481 9.912481 0 0 1-4.349799 14.384412l-36.298453 18.569169 35.795989 19.104642a10.442819 10.442819 0 0 1 4.313123 14.872206 12.313673 12.313673 0 0 1-16.093525 3.990373l-35.795988-19.100974v35.014785a11.883095 11.883095 0 0 1-23.766189 0v-35.693295l-36.192092 18.517822a12.70941 12.70941 0 0 1-16.229226-3.843668 9.890842 9.890842 0 0 1 4.342464-14.439426z m0 171.332951l36.305788-18.569169-35.795989-19.10831a10.452722 10.452722 0 0 1-4.320458-14.875874 12.331645 12.331645 0 0 1 16.093524-3.986705l35.795989 19.10831v-35.025788a11.883095 11.883095 0 0 1 23.766189 0v35.704298l36.199427-18.517822a12.704642 12.704642 0 0 1 16.229226 3.895014 9.912481 9.912481 0 0 1-4.349799 14.384413l-36.298453 18.569169 35.795989 19.104641a10.442819 10.442819 0 0 1 4.313123 14.872207 12.313673 12.313673 0 0 1-16.093525 3.990372l-35.795988-19.100974v35.014785a11.883095 11.883095 0 0 1-23.766189 0v-35.693295l-36.192092 18.517822a12.705009 12.705009 0 0 1-16.229226-3.843667 9.890842 9.890842 0 0 1 4.342464-14.439427z m171.299943-171.332951l36.305788-18.56917-35.795989-19.108309a10.452722 10.452722 0 0 1-4.320458-14.875874 12.331645 12.331645 0 0 1 16.093524-3.986705l35.795988 19.10831v-35.025788a11.883095 11.883095 0 0 1 23.76619 0v35.704298l36.199426-18.517823a12.704642 12.704642 0 0 1 16.229227 3.895015 9.912481 9.912481 0 0 1-4.3498 14.384412l-36.298452 18.569169 35.795988 19.104642a10.442819 10.442819 0 0 1 4.313123 14.872206 12.313673 12.313673 0 0 1-16.093524 3.990373l-35.795988-19.100974v35.014785a11.883095 11.883095 0 0 1-23.76619 0v-35.693295l-36.192091 18.517822a12.70941 12.70941 0 0 1-16.229227-3.843668 9.890842 9.890842 0 0 1 4.342465-14.439426z m0 171.332951l36.305788-18.569169-35.795989-19.10831a10.452722 10.452722 0 0 1-4.320458-14.875874 12.331645 12.331645 0 0 1 16.093524-3.986705l35.795988 19.10831v-35.025788a11.883095 11.883095 0 0 1 23.76619 0v35.704298l36.199426-18.517822a12.704642 12.704642 0 0 1 16.229227 3.895014 9.912481 9.912481 0 0 1-4.3498 14.384413l-36.298452 18.569169 35.795988 19.104641a10.442819 10.442819 0 0 1 4.313123 14.872207 12.313673 12.313673 0 0 1-16.093524 3.990372l-35.795988-19.100974v35.014785a11.883095 11.883095 0 0 1-23.76619 0v-35.693295l-36.192091 18.517822a12.705009 12.705009 0 0 1-16.229227-3.843667 9.890842 9.890842 0 0 1 4.342465-14.439427z" fill="#0D0408" p-id="5034"></path></svg>