<?xml version="1.0" standalone="no"?><!DOCTYPE svg PUBLIC "-//W3C//DTD SVG 1.1//EN" "http://www.w3.org/Graphics/SVG/1.1/DTD/svg11.dtd"><svg t="1675749309109" class="icon" viewBox="0 0 1210 1024" version="1.1" xmlns="http://www.w3.org/2000/svg" p-id="5321" xmlns:xlink="http://www.w3.org/1999/xlink" width="37.8125" height="32"><path d="M1189.732126 610.365983c-37.13467 99.660287-125.894785 171.076218-231.349914 186.142808v-89.159886a207.585192 207.585192 0 1 0-146.708539-387.580699c-50.514155-117.693983-177.01043-183.680367-302.659484-157.875346s-215.774258 136.275255-215.637455 264.321833a273.604585 273.604585 0 0 0 1.559106 28.944871 176.956516 176.956516 0 0 0-53.334923-8.299828c-86.101089 0-155.897032 60.416734-155.897032 134.946476s69.794842 134.946476 155.897032 134.946476a179.944527 179.944527 0 0 0 31.064756-2.692035v85.363897H209.932103v-0.480458c-117.259003-5.468424-209.070579-102.733754-207.576756-219.892264s95.761605-212.050888 213.120366-214.537536c25.196562-140.708309 132.941387-252.342648 272.871061-282.72926 139.930774-30.380378 284.398395 26.487198 365.885616 144.027507 103.995415-23.019461 212.285616 12.567473 282.245501 92.757089a289.836011 289.836011 0 0 1 53.254235 291.796355z m-863.45169 72.717937l47.248137-25.082866-46.586132-25.812722a14.010315 14.010315 0 0 1-7.101616-8.754613 14.600069 14.600069 0 0 1 1.480619-11.340286c4.598831-7.118854 13.67106-9.462464 20.94212-5.384069l46.588333 25.812722v-47.315989c0-8.849971 6.928138-16.020172 15.470029-16.020171s15.459026 7.170201 15.459025 16.020171v48.229227l47.11427-25.013181c7.320573-3.968367 16.335587-1.712779 21.121833 5.263038a13.826934 13.826934 0 0 1 1.463382 11.054212 13.276791 13.276791 0 0 1-7.12619 8.37318l-47.242636 25.082865 46.5898 25.809055a14.028287 14.028287 0 0 1 7.100516 8.758281 14.568894 14.568894 0 0 1-1.489055 11.332951c-4.588195 7.137192-13.661891 9.466132-20.94212 5.391404l-46.5898-25.801719v47.29765a16.137536 16.137536 0 0 1-7.727679 13.881949 15.032115 15.032115 0 0 1-15.470028 0 16.140103 16.140103 0 0 1-7.731347-13.881949v-48.214556l-47.103633 25.013181c-7.312871 3.975702-16.328619 1.753123-21.122201-5.19702a13.787324 13.787324 0 0 1-1.520229-11.101891 13.22251 13.22251 0 0 1 7.174602-8.398854z m0 203.292607l47.248137-25.082865-46.586132-25.809055a14.010315 14.010315 0 0 1-7.101616-8.754613 14.597135 14.597135 0 0 1 1.480619-11.340286c4.598831-7.122521 13.67106-9.462464 20.94212-5.384069l46.588333 25.809054v-47.312321c0-8.849971 6.928138-16.02384 15.470029-16.023839s15.459026 7.173868 15.459025 16.023839v48.229227l47.11427-25.013181c7.320573-3.968367 16.335587-1.712779 21.121833 5.263038a13.826934 13.826934 0 0 1 1.463382 11.054212 13.276791 13.276791 0 0 1-7.12619 8.37318l-47.242636 25.082865 46.5898 25.809055a14.018751 14.018751 0 0 1 7.100516 8.758281 14.557891 14.557891 0 0 1-1.489055 11.329283c-4.588195 7.137192-13.661891 9.469799-20.94212 5.391404l-46.5898-25.801719v47.297651a16.14267 16.14267 0 0 1-7.727679 13.885616 15.032115 15.032115 0 0 1-15.470028 0 16.145971 16.145971 0 0 1-7.731347-13.885616v-48.210889l-47.103633 25.009513c-7.312871 3.975702-16.328619 1.756791-21.122201-5.193352a13.787324 13.787324 0 0 1-1.520229-11.101891 13.229112 13.229112 0 0 1 7.174602-8.402522z m209.811805-203.292607l47.249971-25.082866-46.586132-25.812722a14.010315 14.010315 0 0 1-7.104183-8.754613 14.61584 14.61584 0 0 1 1.481719-11.340286c4.599198-7.118854 13.672894-9.462464 20.94212-5.384069l46.5898 25.812722v-47.315989c0-8.849971 6.928138-16.020172 15.466361-16.020171s15.462693 7.170201 15.462693 16.020171v48.229227l47.110602-25.013181c7.324241-3.968367 16.339255-1.712779 21.121834 5.263038a13.829135 13.829135 0 0 1 1.467048 11.054212 13.276791 13.276791 0 0 1-7.126189 8.37318l-47.242636 25.082865 46.5898 25.809055a14.028287 14.028287 0 0 1 7.100515 8.758281 14.568894 14.568894 0 0 1-1.489054 11.332951c-4.591862 7.137192-13.661891 9.466132-20.94212 5.391404l-46.5898-25.801719v47.29765a16.144871 16.144871 0 0 1-7.727679 13.881949 15.032115 15.032115 0 0 1-15.470028 0 16.140103 16.140103 0 0 1-7.731347-13.881949v-48.214556l-47.103267 25.013181c-7.313238 3.975702-16.328252 1.753123-21.121833-5.19702a13.779255 13.779255 0 0 1-1.522064-11.101891 13.216275 13.216275 0 0 1 7.173869-8.398854z m0 203.292607l47.249971-25.082865-46.586132-25.809055a14.010315 14.010315 0 0 1-7.104183-8.754613 14.611805 14.611805 0 0 1 1.481719-11.340286c4.599198-7.122521 13.672894-9.462464 20.94212-5.384069l46.5898 25.809054v-47.312321c0-8.849971 6.928138-16.02384 15.466361-16.023839s15.462693 7.173868 15.462693 16.023839v48.229227l47.110602-25.013181c7.324241-3.968367 16.339255-1.712779 21.121834 5.263038a13.829135 13.829135 0 0 1 1.467048 11.054212 13.276791 13.276791 0 0 1-7.126189 8.37318l-47.242636 25.082865 46.5898 25.809055a14.018751 14.018751 0 0 1 7.100515 8.758281 14.557891 14.557891 0 0 1-1.489054 11.329283c-4.591862 7.137192-13.661891 9.469799-20.94212 5.391404l-46.5898-25.801719v47.297651a16.150739 16.150739 0 0 1-7.727679 13.885616 15.032115 15.032115 0 0 1-15.470028 0 16.145971 16.145971 0 0 1-7.731347-13.885616v-48.210889l-47.103267 25.009513c-7.313238 3.975702-16.328252 1.756791-21.121833-5.193352a13.779255 13.779255 0 0 1-1.522064-11.101891 13.222877 13.222877 0 0 1 7.173869-8.402522z m203.28894-203.292607l47.246303-25.082866-46.586132-25.812722a14.005547 14.005547 0 0 1-7.100515-8.754613 14.598968 14.598968 0 0 1 1.478051-11.340286c4.599198-7.118854 13.672894-9.462464 20.942121-5.384069l46.589799 25.812722v-47.315989c0-8.849971 6.928138-16.020172 15.470029-16.020171s15.462693 7.170201 15.462693 16.020171v48.229227l47.110602-25.013181c7.320573-3.968367 16.335587-1.712779 21.121834 5.263038a13.826934 13.826934 0 0 1 1.463381 11.054212 13.264321 13.264321 0 0 1-7.126189 8.37318l-47.242637 25.082865 46.5898 25.809055a14.01655 14.01655 0 0 1 7.100516 8.758281 14.568894 14.568894 0 0 1-1.489055 11.332951c-4.588195 7.137192-13.661891 9.466132-20.94212 5.391404l-46.586132-25.801719v47.29765a16.140103 16.140103 0 0 1-7.731347 13.881949 15.032115 15.032115 0 0 1-15.470028 0 16.140103 16.140103 0 0 1-7.731347-13.881949v-48.214556l-47.103266 25.013181c-7.313238 3.975702-16.328252 1.753123-21.121834-5.19702a13.779255 13.779255 0 0 1-1.522063-11.101891 13.232046 13.232046 0 0 1 7.177536-8.398854z m0 203.292607l47.246303-25.082865-46.586132-25.809055a14.005547 14.005547 0 0 1-7.100515-8.754613 14.594934 14.594934 0 0 1 1.478051-11.340286c4.599198-7.122521 13.672894-9.462464 20.942121-5.384069l46.589799 25.809054v-47.312321c0-8.849971 6.928138-16.02384 15.470029-16.023839s15.462693 7.173868 15.462693 16.023839v48.229227l47.110602-25.013181c7.320573-3.968367 16.335587-1.712779 21.121834 5.263038a13.826934 13.826934 0 0 1 1.463381 11.054212 13.264321 13.264321 0 0 1-7.126189 8.37318l-47.242637 25.082865 46.5898 25.809055a14.007381 14.007381 0 0 1 7.100516 8.758281 14.557891 14.557891 0 0 1-1.489055 11.329283c-4.588195 7.137192-13.661891 9.469799-20.94212 5.391404l-46.586132-25.801719v47.297651a16.145971 16.145971 0 0 1-7.731347 13.885616 15.032115 15.032115 0 0 1-15.470028 0 16.145971 16.145971 0 0 1-7.731347-13.885616v-48.210889l-47.103266 25.009513c-7.313238 3.975702-16.328252 1.756791-21.121834-5.193352a13.779255 13.779255 0 0 1-1.522063-11.101891 13.240115 13.240115 0 0 1 7.177536-8.402522z" fill="#0D0408" p-id="5322"></path></svg>