<?xml version="1.0" standalone="no"?><!DOCTYPE svg PUBLIC "-//W3C//DTD SVG 1.1//EN" "http://www.w3.org/Graphics/SVG/1.1/DTD/svg11.dtd"><svg t="1675748893389" class="icon" viewBox="0 0 1210 1024" version="1.1" xmlns="http://www.w3.org/2000/svg" p-id="1425" width="37.8125" height="32" xmlns:xlink="http://www.w3.org/1999/xlink"><path d="M1158.517731 994.850109H51.814327a48.199519 48.199519 0 0 1-48.141937-48.262235v-0.333754a48.199519 48.199519 0 0 1 48.142303-48.262235h1106.704871a48.197318 48.197318 0 0 1 48.133869 48.262235v0.333754a48.197318 48.197318 0 0 1-48.133869 48.262235z m0-168.952665H51.814327c-26.587324 0-48.141937-21.609628-48.141937-48.262235v-0.330086c0-26.656275 21.554613-48.265903 48.142303-48.265902h1106.704871c26.590258 0 48.133868 21.609628 48.133869 48.265902v0.330086c0 26.652607-21.54361 48.262235-48.133869 48.262235z m0-193.037937H51.814327c-26.587324 0-48.141937-21.60596-48.141937-48.262235v-0.29341a48.19255 48.19255 0 0 1 48.142303-48.254899h1106.704871a48.19255 48.19255 0 0 1 48.133869 48.254899v0.333754a48.19255 48.19255 0 0 1-48.133869 48.262235v-0.040344z m-276.582694-361.906613a228.290384 228.290384 0 0 0-65.008596 9.513444c-57.009513-115.54549-185.89341-176.5109-311.095014-147.164424-125.216275 29.353444-213.764034 141.295496-213.756699 270.206533 0 3.920688 0.295977 7.779026 0.481192 11.666705H28.662831a203.699713 203.699713 0 0 1 155.524034-72.11388c4.648711 0 9.193261 0.385467 13.759083 0.696848 14.861203-146.583106 119.711175-268.142762 262.256596-304.04071s292.250774 21.565616 374.442178 143.711358a276.842361 276.842361 0 0 1 345.58533 231.73208h-85.877364c-34.721375-87.094648-118.856619-144.214556-212.417651-144.207587z m0 0" fill="#0D0408" p-id="1426"></path></svg>