<?xml version="1.0" standalone="no"?><!DOCTYPE svg PUBLIC "-//W3C//DTD SVG 1.1//EN" "http://www.w3.org/Graphics/SVG/1.1/DTD/svg11.dtd"><svg t="1675749151831" class="icon" viewBox="0 0 1210 1024" version="1.1" xmlns="http://www.w3.org/2000/svg" p-id="1721" xmlns:xlink="http://www.w3.org/1999/xlink" width="37.8125" height="32"><path d="M1159.300401 507.754728c-35.16149 93.663725-119.216046 160.795874-219.09639 175.007908v-83.772149c69.912206-21.429914 122.04745-79.49937 135.353582-150.761261s-14.421089-143.94792-71.977077-188.709409-135.441605-54.20745-202.203324-24.52392c-49.85765-115.326533-177.483553-177.109456-300.015129-145.242224S298.342693 237.532057 312.15349 362.229364a168.637249 168.637249 0 0 0-50.531759-7.794063c-81.513628 0-147.590235 56.74361-147.590235 126.740172s66.076607 126.738338 147.590235 126.738338a171.400436 171.400436 0 0 0 29.407725-2.534327v80.214556H231.641857v-0.53914c-111.608665-4.562521-199.305536-96.21639-197.8858-206.82086s91.440046-200.015221 203.132333-201.760642c23.811668-132.16165 125.808229-237.040963 258.286395-265.57506 132.481834-28.538499 269.254785 24.909387 346.35553 135.335244 98.530659-21.565616 201.084699 11.919771 267.336619 87.289398 66.248252 75.375496 85.598625 180.571691 50.433467 274.231748z m-745.810888 123.217421c0 21.525272-17.622923 38.968481-39.360917 38.968481s-39.356516-17.443209-39.356516-38.968481c0-21.517937 39.356516-58.458223 39.356516-58.458223s39.360917 36.940287 39.360917 58.458223z m0 136.406189c0 21.517937-17.622923 38.968481-39.360917 38.968481s-39.356516-17.450544-39.356516-38.968481c0-21.525272 39.356516-58.461891 39.356516-58.461891s39.360917 36.936619 39.360917 58.461891z m0 136.398854c0 21.525272-17.622923 38.975817-39.360917 38.975817s-39.356516-17.450544-39.356516-38.975817c0-21.517937 39.356516-58.454556 39.356516-58.454556s39.360917 36.936619 39.360917 58.454556z m126.122178-194.860745c0 21.525272-17.622923 38.972149-39.360917 38.972149s-39.357249-17.446877-39.35725-38.972149c0-21.517937 39.357249-58.458223 39.35725-58.458224s39.360917 36.940287 39.360917 58.458224z m0 136.406189c0 21.521605-17.622923 38.972149-39.360917 38.972149s-39.357249-17.450544-39.35725-38.972149 39.357249-58.461891 39.35725-58.461891 39.360917 36.936619 39.360917 58.461891z m0 136.398854c0 21.525272-17.622923 38.975817-39.360917 38.975817s-39.357249-17.450544-39.35725-38.975817c0-21.517937 39.357249-58.454556 39.35725-58.454556s39.360917 36.936619 39.360917 58.454556z m126.122177-331.263267c0 21.525272-17.622923 38.975817-39.357249 38.975817s-39.360917-17.450544-39.360917-38.975817 39.360917-58.461891 39.360917-58.461891 39.357249 36.940287 39.357249 58.461891z m0 136.402522c0 21.525272-17.622923 38.972149-39.357249 38.972149s-39.360917-17.446877-39.360917-38.972149c0-21.517937 39.360917-58.458223 39.360917-58.458224s39.357249 36.940287 39.357249 58.458224z m0 136.406189c0 21.521605-17.622923 38.972149-39.357249 38.972149s-39.360917-17.450544-39.360917-38.972149 39.360917-58.458223 39.360917-58.458223 39.357249 36.932951 39.357249 58.458223z m124.361719-214.350487c0 21.525272-17.619255 38.972149-39.357249 38.972149s-39.357249-17.446877-39.357249-38.972149c0-21.517937 39.357249-58.458223 39.357249-58.458224s39.357249 36.940287 39.357249 58.458224z m0 136.406189c0 21.521605-17.619255 38.972149-39.357249 38.972149s-39.357249-17.450544-39.357249-38.972149 39.357249-58.461891 39.357249-58.461891 39.357249 36.936619 39.357249 58.461891z m0 136.398854c0 21.525272-17.619255 38.975817-39.357249 38.975817s-39.357249-17.450544-39.357249-38.975817c0-21.517937 39.357249-58.454556 39.357249-58.454556s39.357249 36.936619 39.357249 58.454556z m110.468768-331.263267c0 21.525272-17.622923 38.975817-39.357249 38.975817s-39.360917-17.450544-39.360917-38.975817 39.360917-58.461891 39.360917-58.461891 39.357249 36.940287 39.357249 58.461891z m0 136.402522c0 21.525272-17.622923 38.972149-39.357249 38.972149s-39.360917-17.446877-39.360917-38.972149c0-21.517937 39.360917-58.458223 39.360917-58.458224s39.357249 36.940287 39.357249 58.458224z m0 136.406189c0 21.521605-17.622923 38.972149-39.357249 38.972149s-39.360917-17.450544-39.360917-38.972149 39.360917-58.458223 39.360917-58.458223 39.357249 36.932951 39.357249 58.458223z" fill="#0D0409" p-id="1722"></path></svg>