<?xml version="1.0" standalone="no"?><!DOCTYPE svg PUBLIC "-//W3C//DTD SVG 1.1//EN" "http://www.w3.org/Graphics/SVG/1.1/DTD/svg11.dtd"><svg t="1675749240185" class="icon" viewBox="0 0 1210 1024" version="1.1" xmlns="http://www.w3.org/2000/svg" p-id="3593" xmlns:xlink="http://www.w3.org/1999/xlink" width="37.8125" height="32"><path d="M1163.056046 940.378223H47.268309c-25.295954-0.377765-45.606877-20.920115-45.606876-46.124011 0-25.2149 20.310923-45.757249 45.606876-46.135014h1115.787737c25.30659 0.377765 45.606877 20.920115 45.606877 46.135014 0 25.203897-20.300287 45.746246-45.606877 46.124011z m-232.816963-393.440458a69.497032 69.497032 0 1 1 49.168138-20.439656 69.797777 69.797777 0 0 1-49.168138 20.439656z m0-277.439083a69.492264 69.492264 0 1 1 49.168138-20.436722 69.790441 69.790441 0 0 1-49.168138 20.436722z m-348.556103 439.606648a69.472092 69.472092 0 1 1 49.175473-20.432321 69.792275 69.792275 0 0 1-49.175473 20.432321z m0-301.188768c-38.341318 0-69.42808-30.965731-69.450086-69.166212-0.011003-38.204149 31.046418-69.192252 69.387736-69.21976 38.348653-0.031908 69.453754 30.903748 69.501433 69.112665a69.315851 69.315851 0 0 1-69.439083 69.232963v0.040344z m-348.558671 162.079541a69.483828 69.483828 0 1 1 49.178041-20.439656 69.78384 69.78384 0 0 1-49.177307 20.439656z m0-347.313146a69.464756 69.464756 0 1 1 49.178041-20.428287 69.780905 69.780905 0 0 1-49.177307 20.428654z m0 0" fill="#0D0409" p-id="3594"></path></svg>