<?xml version="1.0" standalone="no"?><!DOCTYPE svg PUBLIC "-//W3C//DTD SVG 1.1//EN" "http://www.w3.org/Graphics/SVG/1.1/DTD/svg11.dtd"><svg t="1675749327147" class="icon" viewBox="0 0 1210 1024" version="1.1" xmlns="http://www.w3.org/2000/svg" p-id="5897" xmlns:xlink="http://www.w3.org/1999/xlink" width="37.8125" height="32"><path d="M1193.975931 550.150602c-0.01467 157.957135-116.124241 292.093066-272.951748 315.301776-156.820172 23.212378-307.04596-71.496619-353.147965-222.631977-39.826705 133.549112-172.011461 217.732034-310.387897 197.681146-138.387072-20.061891-241.020699-138.273009-241.011897-277.598624 0-13.181433-0.350625-19.390716 0-76.510258-0.01467-139.330017 102.611255-257.55067 240.99686-277.618063 138.387805-20.058223 270.576229 64.122865 310.402934 197.682246 46.087335-151.157364 196.335129-245.890567 353.169971-222.673788 156.842178 23.218613 272.955415 157.382418 272.944413 315.365593v51.001949h-0.014671zM527.770774 425.42212v0.040344c-52.259943-106.639404-171.480756-163.233009-287.521742-136.489444-116.050155 26.749066-198.220287 129.748355-198.169674 248.428928a105.061593 105.061593 0 0 0 1.21655 21.228195 190.855702 190.855702 0 0 0 24.753513 45.122751c38.381662 81.751289 115.425926 137.678854 204.407565 137.678854 88.973937 0 166.018201-55.927564 204.410865-137.678854a296.723438 296.723438 0 0 0 51.563095-168.365845c0-3.407221-0.564814-6.623725-0.660172-9.964929z m410.230831-143.059621c-161.177307-7.335244-332.777994 306.045066-332.777995 306.045065s148.832092 186.311519 307.174327 178.528826 230.38533-117.82235 230.385329-229.534442c0-111.719427-43.611691-247.70604-204.781661-255.039449z m47.660745-107.904a76.588378 76.588378 0 0 1 29.403323-147.385215v0.036676a76.631289 76.631289 0 1 1-29.403323 147.348539zM608.638166 233.306223c-42.45639 0-76.866017-34.292264-76.866017-76.593512a76.73435 76.73435 0 0 1 76.866017-76.593147c42.452722 0 76.87702 34.295564 76.87702 76.593147s-34.424298 76.593513-76.87702 76.593512zM310.876057 180.245272c-49.491989 0-89.616871-39.972309-89.616871-89.289719A89.450728 89.450728 0 0 1 310.876057 1.672436c49.493822 0 89.609903 39.972676 89.609903 89.283117 0 49.316309-40.11608 89.289719-89.609903 89.289719z m0 663.494785v0.007336a89.235072 89.235072 0 1 1-89.616871 89.24424c0.020539-49.296504 40.13992-89.251576 89.616871-89.251576z m347.219989-3.693295a76.72298 76.72298 0 1 1-54.357823 22.42384 76.86455 76.86455 0 0 1 54.357823-22.42384z m356.184756 30.485272c41.524814 0 75.186246 33.661433 75.186247 75.186247s-33.661433 75.186246-75.186247 75.186246-75.186246-33.661433-75.186246-75.186246 33.661433-75.186246 75.186246-75.186247z" fill="#0E050A" p-id="5898"></path></svg>