<?xml version="1.0" standalone="no"?><!DOCTYPE svg PUBLIC "-//W3C//DTD SVG 1.1//EN" "http://www.w3.org/Graphics/SVG/1.1/DTD/svg11.dtd"><svg t="1675749183970" class="icon" viewBox="0 0 1210 1024" version="1.1" xmlns="http://www.w3.org/2000/svg" p-id="2153" xmlns:xlink="http://www.w3.org/1999/xlink" width="37.8125" height="32"><path d="M1166.068997 472.540057h-65.070945c-23.722178 0-42.958854-19.174327-42.958854-42.826819s19.236676-42.823152 42.958854-42.823152h65.070945c23.722178 0 42.958854 19.174327 42.958854 42.823152s-19.236676 42.826819-42.958854 42.826819z m-120.763782-224.643667a43.059347 43.059347 0 0 1-60.99255-60.7978L1030.058911 141.496848a43.060814 43.060814 0 1 1 60.996218 60.7978z m-62.536619 294.43851h0.033009a247.623885 247.623885 0 0 1 18.803896 79.642407 43.05788 43.05788 0 0 1 44.081147 10.221661l45.749914 45.599542a43.059713 43.059713 0 1 1-60.992551 60.798166l-36.265444-36.08573c-24.595072 95.62957-104.886648 166.84745-203.024871 180.087564l-88.672091 7.724011v-79.022578l88.672091-3.946361c74.423381-22.317479 125.22361-90.813983 124.805502-168.285158a179.520917 179.520917 0 0 0-2.288596-27.257765 491.182579 491.182579 0 0 0-14.648482-48.104527c-27.92894-60.589112-88.565731-99.550258-155.455816-99.880344a169.40745 169.40745 0 0 0-83.155989 21.752665q-5.116332-9.842063-11.171576-19.163324l0.135702 1.346017a237.996745 237.996745 0 0 0-64.300745-62.969398c0.15404-1.298338 0.458453-2.54533 0.630831-3.817994A229.248734 229.248734 0 0 0 349.689765 387.30086C274.580172 426.790143 227.612607 504.532722 227.727771 589.177765v0.469456a146.454739 146.454739 0 0 0-27.737857-2.76172c-71.488183 0-129.44541 50.921261-129.44541 113.740287 0 62.830029 57.981066 113.644928 129.475485 113.644928 3.455633 0 77.661158-2.736046 81.054441-2.970773v79.022578c-9.119542 1.51106-89.298521-5.662808-98.539828-5.585787-99.861639-1.910831-180.13451-82.572837-181.238464-182.13043s77.347576-181.969054 177.148699-186.080459c23.598212-140.932034 145.418269-244.55702 288.751862-245.623197A288.367129 288.367129 0 0 1 617.994269 313.355736c63.941318-99.172493 196.115072-128.466155 296.193467-65.643828s130.677364 194.295198 68.58086 294.622992z m-66.11255-185.954659a151.466911 151.466911 0 0 0-238.641146 5.44275 299.983954 299.983954 0 0 1 30.756676 37.940447c88.639083-19.988539 180.945788 12.125158 237.86361 82.752551a149.334556 149.334556 0 0 0-29.97914-126.135748z m-117.642636-184.233444a42.896871 42.896871 0 0 1-42.958854-42.821685v-64.869227c0-23.645524 19.236676-42.821318 42.962521-42.821318s42.958854 19.175794 42.958854 42.821318v64.869227a42.886235 42.886235 0 0 1-42.962521 42.821685z m-244.190258 76.124057L509.076905 202.669112a43.061914 43.061914 0 0 1 60.999886-60.7978l45.738911 45.595507a43.061547 43.061547 0 0 1-60.99255 60.804035zM444.049971 880.33192a43.090521 43.090521 0 0 1-86.181043 0c0-23.755186 43.094556-64.517135 43.094556-64.517135s43.086487 40.761948 43.086487 64.517135z m172.359886-92.189341a43.048344 43.048344 0 0 1-43.087221 43.0102c-23.799198 0-43.094556-19.258682-43.094556-43.0102S573.322636 723.621777 573.322636 723.621777s43.087221 40.765616 43.087221 64.520802z m0 171.21192a43.048344 43.048344 0 0 1-43.087221 43.0102c-23.799198 0-43.094556-19.258682-43.094556-43.0102s43.094556-64.520802 43.094556-64.520803 43.087221 40.765616 43.087221 64.520803z" fill="#0D0408" p-id="2154"></path></svg>