<?xml version="1.0" standalone="no"?><!DOCTYPE svg PUBLIC "-//W3C//DTD SVG 1.1//EN" "http://www.w3.org/Graphics/SVG/1.1/DTD/svg11.dtd"><svg t="1675749359448" class="icon" viewBox="0 0 1210 1024" version="1.1" xmlns="http://www.w3.org/2000/svg" p-id="6041" xmlns:xlink="http://www.w3.org/1999/xlink" width="37.8125" height="32"><path d="M958.034521 727.640023v-89.596332c73.682521-23.014327 128.586819-85.151175 142.571462-161.34235s-15.249971-153.89341-75.923439-201.770178a207.037249 207.037249 0 0 0-213.213524-26.373134c-50.466476-118.272734-176.838052-184.582968-302.366074-158.651049S293.54251 226.851943 293.679312 355.527519a276.598097 276.598097 0 0 0 1.557639 29.087174 175.866132 175.866132 0 0 0-53.283576-8.340172c-86.016734 0-155.744092 60.713811-155.744091 135.610316s69.728458 135.606648 155.744091 135.606647a178.524424 178.524424 0 0 0 31.032115-2.703037v85.782006h-62.668653v-0.484126c-117.143473-5.494097-208.865192-103.236218-207.373204-220.970545s95.66588-213.092126 212.910946-215.590143c25.173456-141.40149 132.810819-253.584138 272.603324-284.12039 139.795072-30.52965 284.115989 26.617398 365.526189 144.734625 103.892722-23.132424 212.080229 12.629456 281.966762 93.213341 69.893868 80.579484 90.300516 193.082682 53.202521 293.230762s-125.770086 171.916103-231.118854 187.056046z m-498.224412-17.663267a41.617238 41.617238 0 0 1-41.535817-41.697192c0-23.028997 41.535817-62.551289 41.535817-62.551289s41.528481 39.522292 41.528481 62.551289a41.604768 41.604768 0 0 1-41.528481 41.697192z m-77.445502 121.860402l34.317937-17.652264-33.837478-18.165731a9.967496 9.967496 0 0 1-4.082063-14.142349 11.614991 11.614991 0 0 1 15.209627-3.788654l33.837479 18.165731v-33.298338a11.232092 11.232092 0 1 1 22.464183 0v33.94384l34.215244-17.604585a11.96965 11.96965 0 0 1 15.341662 3.704298 9.448894 9.448894 0 0 1-4.111404 13.672894l-34.31427 17.652264 33.837479 18.162063a9.954659 9.954659 0 0 1 4.074728 14.138682 11.600321 11.600321 0 0 1-15.209628 3.792321l-33.833811-18.158396v33.287335a11.232092 11.232092 0 1 1-22.464183 0v-33.929169l-34.211576 17.600917a11.965249 11.965249 0 0 1-15.337994-3.656619 9.423954 9.423954 0 0 1 4.104068-13.72424z m202.041949-163.557594c0-23.028997 41.532149-62.551289 41.532149-62.551289s41.532149 39.522292 41.532149 62.551289-18.591175 41.697192-41.532149 41.697192-41.532149-18.671862-41.532149-41.697192z m41.532149 187.650201c-22.937307 0-41.532149-18.671862-41.532149-41.704527 0-23.02533 41.532149-62.543954 41.532149-62.543954s41.532149 39.518625 41.532149 62.543954c0 23.032665-18.591175 41.704527-41.532149 41.704527z m-56.679427 121.860401l34.317937-17.659599-33.837479-18.158395a9.96933 9.96933 0 0 1-4.082063-14.14235 11.599954 11.599954 0 0 1 15.209628-3.788653l33.837478 18.15106v-33.283667a11.235759 11.235759 0 1 1 22.471519 0v33.936504l34.218911-17.61192a11.975152 11.975152 0 0 1 15.341662 3.663954 9.425788 9.425788 0 0 1-4.111404 13.665559l-34.310602 17.652264 33.830144 18.16573a9.952825 9.952825 0 0 1 4.082063 14.14235 11.605822 11.605822 0 0 1-15.209628 3.788653l-33.837478-18.154728v33.287336a11.232092 11.232092 0 1 1-22.464184 0v-33.936505l-34.222579 17.608252a11.965983 11.965983 0 0 1-15.337994-3.660286 9.430556 9.430556 0 0 1 4.104069-13.665559z m202.045616-309.510602c0-23.028997 41.528481-62.551289 41.528481-62.551289s41.535817 39.522292 41.535817 62.551289-18.594842 41.697192-41.535817 41.697192c-22.933639 0-41.528481-18.671862-41.528481-41.697192z m-15.14361 163.557594l34.310601-17.652264-33.837478-18.165731a9.957593 9.957593 0 0 1-4.074728-14.142349 11.612424 11.612424 0 0 1 15.209628-3.788654l33.83381 18.165731v-33.298338a11.233926 11.233926 0 1 1 22.467851 0v33.94384l34.218912-17.604585a11.967817 11.967817 0 0 1 15.341662 3.704298 9.453295 9.453295 0 0 1-4.104069 13.672894l-34.317937 17.652264 33.833811 18.162063a9.952458 9.952458 0 0 1 4.078395 14.138682 11.602155 11.602155 0 0 1-15.209627 3.792321l-33.837479-18.158396v33.287335a11.232092 11.232092 0 1 1-22.464183 0v-33.929169l-34.222579 17.600917a11.968917 11.968917 0 0 1-15.337994-3.656619 9.432756 9.432756 0 0 1 4.111404-13.72424z m0 0" fill="#0D0408" p-id="6042"></path></svg>